<?xml version="1.0" encoding="UTF-8"?>
<svg width="846.72" height="299.84" version="1.1" viewBox="0 0 846.72 299.84" xml:space="preserve" xmlns="http://www.w3.org/2000/svg" xmlns:cc="http://creativecommons.org/ns#" xmlns:dc="http://purl.org/dc/elements/1.1/" xmlns:rdf="http://www.w3.org/1999/02/22-rdf-syntax-ns#"><metadata><rdf:RDF><cc:Work rdf:about=""><dc:format>image/svg+xml</dc:format><dc:type rdf:resource="http://purl.org/dc/dcmitype/StillImage"/><dc:title/></cc:Work></rdf:RDF></metadata><defs><clipPath id="clipPath18"><path d="m0 0h2645.8v934.88h-2645.8z" clip-rule="evenodd"/></clipPath><clipPath id="clipPath30"><path d="m0 0h2645.8v934.88h-2645.8z" clip-rule="evenodd"/></clipPath><linearGradient id="linearGradient94" x2="0" y2="1" gradientTransform="matrix(28.8 0 0 -19.2 34.78 58.71)" gradientUnits="userSpaceOnUse"><stop stop-color="#fff2cc" offset="0"/><stop stop-color="#d5e8d4" offset="1"/></linearGradient><linearGradient id="linearGradient238" x1="1" x2="0" gradientTransform="matrix(28.8 0 0 -18.96 140.86 32.31)" gradientUnits="userSpaceOnUse"><stop stop-color="#f5f5f5" offset="0"/><stop stop-color="#d5e8d4" offset="1"/></linearGradient></defs><g transform="matrix(.32 0 0 .32 0 1.0829e-5)"><g clip-path="url(#clipPath18)"><g transform="scale(2.9964)"><path d="m0 0h883v312h-883z" fill="#fff"/></g></g><g clip-path="url(#clipPath30)"><g transform="matrix(2.9964 0 0 2.9964 1.4982 1.4982)"><path d="m121 86h19.63" fill="none" stroke="#000" stroke-miterlimit="10"/><path d="m145.88 86-7 3.5 1.75-3.5-1.75-3.5z"/><path d="m145.88 86-7 3.5 1.75-3.5-1.75-3.5z" fill="none" stroke="#000" stroke-miterlimit="10"/></g><g transform="scale(2.9964)"><path d="m116 66c2.76 0 5 2.24 5 5v65c-20-12-40-12-60 0s-40 12-60 0v-65c0-2.76 2.24-5 5-5z" fill="#dae8fc"/><path d="m116 66c2.76 0 5 2.24 5 5v65c-20-12-40-12-60 0s-40 12-60 0v-65c0-2.76 2.24-5 5-5z" fill="none" stroke="#6c8ebf" stroke-miterlimit="10"/><text transform="translate(12.094 107)" fill="#000000" font-family="Helvetica" font-size="14px"><tspan x="0 9.8642578 18.416016 26.202148 30.091797 37.87793 45.664062 52.664062 59.664062 64.326172 67.436523 75.222656 79.112305 82.222656 90.008789" y="0">RTL description</tspan></text></g><g transform="matrix(2.9964 0 0 2.9964 1.4982 1.4982)"><path d="m61 186v-30h70v-30h9.63" fill="none" stroke="#000" stroke-miterlimit="10"/><path d="m145.88 126-7 3.5 1.75-3.5-1.75-3.5z"/><path d="m145.88 126-7 3.5 1.75-3.5-1.75-3.5z" fill="none" stroke="#000" stroke-miterlimit="10"/></g><g transform="scale(2.9964)"><path d="m11 277.67v-73.34c0-10.12 22.39-18.33 50-18.33s50 8.21 50 18.33v73.34c0 10.12-22.39 18.33-50 18.33s-50-8.21-50-18.33z" fill="#d5e8d4"/><path d="m11 277.67v-73.34c0-10.12 22.39-18.33 50-18.33s50 8.21 50 18.33v73.34c0 10.12-22.39 18.33-50 18.33s-50-8.21-50-18.33z" fill="none" stroke="#82b366" stroke-miterlimit="10"/><path d="m11 204.33c0 10.13 22.39 18.34 50 18.34s50-8.21 50-18.34" fill="none" stroke="#82b366" stroke-miterlimit="10"/><text transform="translate(21.312 251)" fill="#000000" font-family="Helvetica" font-size="14px"><tspan x="0 10.110352 17.896484 29.558594 37.344727 45.130859 52.916992 60.703125 68.489258 72.378906" y="0">Components</tspan></text><text transform="translate(39.609 267)" fill="#000000" font-family="Helvetica" font-size="14px"><tspan x="0 7.7861328 10.896484 18.682617 23.344727 31.130859 35.792969" y="0">Library</tspan></text></g><g transform="matrix(2.9964 0 0 2.9964 1.4982 1.4982)"><path d="m267 106h20-13 13.63" fill="none" stroke="#000" stroke-miterlimit="10"/><path d="m292.88 106-7 3.5 1.75-3.5-1.75-3.5z"/><path d="m292.88 106-7 3.5 1.75-3.5-1.75-3.5z" fill="none" stroke="#000" stroke-miterlimit="10"/><path d="m207 146v20-10 13.63" fill="none" stroke="#000" stroke-miterlimit="10"/><path d="m207 174.88-3.5-7 3.5 1.75 3.5-1.75z"/><path d="m207 174.88-3.5-7 3.5 1.75 3.5-1.75z" fill="none" stroke="#000" stroke-miterlimit="10"/></g><g transform="scale(2.9964)"><path d="m154 66h106c0.45963 0 0.91483 0.04483 1.3656 0.1345 0.45078 0.08967 0.88849 0.22244 1.3131 0.39834 0.42462 0.1759 0.82803 0.39152 1.2102 0.64687 0.38214 0.25536 0.73571 0.54554 1.0608 0.87054 0.32501 0.325 0.6152 0.67857 0.87054 1.0607 0.25534 0.38217 0.47095 0.78558 0.64685 1.2102 0.17587 0.42464 0.30866 0.86236 0.39835 1.3132 0.0897 0.45079 0.13452 0.906 0.13455 1.3656v66c-3e-5 0.45961-0.0449 0.91482-0.13455 1.3656-0.0897 0.45079-0.22248 0.8885-0.39835 1.3131-0.1759 0.42463-0.39151 0.82804-0.64685 1.2102-0.25534 0.38217-0.54553 0.73576-0.87054 1.0608-0.32505 0.32499-0.67862 0.61517-1.0608 0.87053-0.38218 0.25535-0.78559 0.47097-1.2102 0.64686-0.42465 0.17589-0.86236 0.30869-1.3131 0.39836-0.45077 0.0897-0.90597 0.13449-1.3656 0.13451h-106c-0.45964-2e-5 -0.91486-0.0448-1.3656-0.13451-0.45079-0.0897-0.88852-0.22247-1.3132-0.39836-0.42464-0.17589-0.82804-0.39151-1.2102-0.64686-0.38215-0.25536-0.73575-0.54554-1.0607-0.87053-0.32502-0.32502-0.61519-0.67861-0.87055-1.0608-0.25535-0.38218-0.47098-0.78559-0.64686-1.2102-0.17589-0.42464-0.30867-0.86235-0.39833-1.3131-0.08968-0.4508-0.13451-0.90601-0.13451-1.3656v-66c0-0.45963 0.0448-0.91484 0.13451-1.3656 0.0897-0.4508 0.22244-0.88852 0.39833-1.3132 0.17588-0.42464 0.39151-0.82805 0.64686-1.2102 0.25536-0.38216 0.54553-0.73575 0.87055-1.0607 0.32499-0.325 0.67859-0.61518 1.0607-0.87054 0.38217-0.25536 0.78557-0.47098 1.2102-0.64687 0.42463-0.1759 0.86236-0.30867 1.3132-0.39834 0.45079-0.089669 0.90601-0.1345 1.3656-0.1345z" fill="url(#linearGradient94)"/><path d="m154 66h106c0.45963 0 0.91483 0.04483 1.3656 0.1345 0.45078 0.08967 0.88849 0.22244 1.3131 0.39834 0.42462 0.1759 0.82803 0.39152 1.2102 0.64687 0.38214 0.25536 0.73571 0.54554 1.0608 0.87054 0.32501 0.325 0.6152 0.67857 0.87054 1.0607 0.25534 0.38217 0.47095 0.78558 0.64685 1.2102 0.17587 0.42464 0.30866 0.86236 0.39835 1.3132 0.0897 0.45079 0.13452 0.906 0.13455 1.3656v66c-3e-5 0.45961-0.0449 0.91482-0.13455 1.3656-0.0897 0.45079-0.22248 0.8885-0.39835 1.3131-0.1759 0.42463-0.39151 0.82804-0.64685 1.2102-0.25534 0.38217-0.54553 0.73576-0.87054 1.0608-0.32505 0.32499-0.67862 0.61517-1.0608 0.87053-0.38218 0.25535-0.78559 0.47097-1.2102 0.64686-0.42465 0.17589-0.86236 0.30869-1.3131 0.39836-0.45077 0.0897-0.90597 0.13449-1.3656 0.13451h-106c-0.45964-2e-5 -0.91486-0.0448-1.3656-0.13451-0.45079-0.0897-0.88852-0.22247-1.3132-0.39836-0.42464-0.17589-0.82804-0.39151-1.2102-0.64686-0.38215-0.25536-0.73575-0.54554-1.0607-0.87053-0.32502-0.32502-0.61519-0.67861-0.87055-1.0608-0.25535-0.38218-0.47098-0.78559-0.64686-1.2102-0.17589-0.42464-0.30867-0.86235-0.39833-1.3131-0.08968-0.4508-0.13451-0.90601-0.13451-1.3656v-66c0-0.45963 0.0448-0.91484 0.13451-1.3656 0.0897-0.4508 0.22244-0.88852 0.39833-1.3132 0.17588-0.42464 0.39151-0.82805 0.64686-1.2102 0.25536-0.38216 0.54553-0.73575 0.87055-1.0607 0.32499-0.325 0.67859-0.61518 1.0607-0.87054 0.38217-0.25536 0.78557-0.47098 1.2102-0.64687 0.42463-0.1759 0.86236-0.30867 1.3132-0.39834 0.45079-0.089669 0.90601-0.1345 1.3656-0.1345z" fill="none" stroke="#d6b656" stroke-miterlimit="10"/><text transform="translate(173.53 104)" fill="#000000" font-family="Helvetica" font-size="14px"><tspan x="0 9.3378906 12.448242 20.234375 28.020508 31.130859 38.916992 42.806641 52.916992 60.703125 63.813477" y="0">Single Rail</tspan></text><text transform="translate(176.66 120)" fill="#000000" font-family="Helvetica" font-size="14px"><tspan x="0 9.3378906 16.337891 24.124023 28.013672 35.799805 43.585938 50.585938 53.696289" y="0">Synthesis</tspan></text></g><g transform="matrix(2.9964 0 0 2.9964 1.4982 1.4982)"><path d="m414 106h20-12 13.63" fill="none" stroke="#000" stroke-miterlimit="10"/><path d="m440.88 106-7 3.5 1.75-3.5-1.75-3.5z"/><path d="m440.88 106-7 3.5 1.75-3.5-1.75-3.5z" fill="none" stroke="#000" stroke-miterlimit="10"/></g><g transform="scale(2.9964)"><path d="m409 66c2.76 0 5 2.24 5 5v65c-20-12-40-12-60 0s-40 12-60 0v-65c0-2.76 2.24-5 5-5z" fill="#fff2cc"/><path d="m409 66c2.76 0 5 2.24 5 5v65c-20-12-40-12-60 0s-40 12-60 0v-65c0-2.76 2.24-5 5-5z" fill="none" stroke="#d6b656" stroke-miterlimit="10"/><text transform="translate(299.14 107)" fill="#000000" font-family="Helvetica" font-size="14px"><tspan x="0 9.3378906 12.448242 20.234375 28.020508 31.130859 38.916992 42.806641 52.916992 60.703125 63.813477 66.923828 70.813477 80.923828 88.709961 92.599609 95.709961 98.820312 105.82031" y="0">Single Rail Netlist</tspan></text></g><g transform="matrix(2.9964 0 0 2.9964 1.4982 1.4982)"><path d="m562 106h20-13 13.63" fill="none" stroke="#000" stroke-miterlimit="10"/><path d="m587.88 106-7 3.5 1.75-3.5-1.75-3.5z"/><path d="m587.88 106-7 3.5 1.75-3.5-1.75-3.5z" fill="none" stroke="#000" stroke-miterlimit="10"/></g><g transform="scale(2.9964)"><path d="m449 66h106c0.45959 0 0.91479 0.04483 1.3656 0.1345 0.45075 0.08967 0.88849 0.22244 1.3131 0.39834s0.82806 0.39152 1.2102 0.64687c0.38214 0.25536 0.73577 0.54554 1.0608 0.87054 0.32501 0.325 0.61517 0.67857 0.87054 1.0607 0.25531 0.38217 0.47095 0.78558 0.64685 1.2102 0.17591 0.42464 0.30872 0.86236 0.39838 1.3132 0.08972 0.45079 0.13458 0.906 0.13452 1.3656v66c6e-5 0.45961-0.0448 0.91482-0.13452 1.3656-0.0897 0.45079-0.22247 0.8885-0.39838 1.3131-0.1759 0.42463-0.39154 0.82804-0.64685 1.2102-0.25537 0.38217-0.54553 0.73576-0.87054 1.0608-0.32502 0.32499-0.67865 0.61517-1.0608 0.87053-0.38215 0.25535-0.78559 0.47097-1.2102 0.64686s-0.86236 0.30869-1.3131 0.39836c-0.45081 0.0897-0.90601 0.13449-1.3656 0.13451h-106c-0.45966-2e-5 -0.91489-0.0448-1.3657-0.13451-0.45081-0.0897-0.88852-0.22247-1.3131-0.39836-0.42466-0.17589-0.82807-0.39151-1.2102-0.64686-0.38217-0.25536-0.73578-0.54554-1.0608-0.87053-0.32501-0.32502-0.6152-0.67861-0.87054-1.0608-0.25537-0.38218-0.47101-0.78559-0.64688-1.2102-0.17591-0.42464-0.30869-0.86235-0.39835-1.3131-0.08966-0.4508-0.13449-0.90601-0.13446-1.3656v-66c-3e-5 -0.45963 0.0448-0.91484 0.13449-1.3656 0.0896-0.4508 0.22241-0.88852 0.39832-1.3132 0.17587-0.42464 0.39151-0.82805 0.64685-1.2102 0.25537-0.38216 0.54556-0.73575 0.87057-1.0607 0.32498-0.325 0.67856-0.61518 1.0607-0.87054 0.38214-0.25536 0.78555-0.47098 1.2102-0.64687 0.42462-0.1759 0.86233-0.30867 1.3131-0.39834 0.4508-0.089669 0.90603-0.1345 1.3657-0.1345z" fill="#d5e8d4"/><path d="m449 66h106c0.45959 0 0.91479 0.04483 1.3656 0.1345 0.45075 0.08967 0.88849 0.22244 1.3131 0.39834s0.82806 0.39152 1.2102 0.64687c0.38214 0.25536 0.73577 0.54554 1.0608 0.87054 0.32501 0.325 0.61517 0.67857 0.87054 1.0607 0.25531 0.38217 0.47095 0.78558 0.64685 1.2102 0.17591 0.42464 0.30872 0.86236 0.39838 1.3132 0.08972 0.45079 0.13458 0.906 0.13452 1.3656v66c6e-5 0.45961-0.0448 0.91482-0.13452 1.3656-0.0897 0.45079-0.22247 0.8885-0.39838 1.3131-0.1759 0.42463-0.39154 0.82804-0.64685 1.2102-0.25537 0.38217-0.54553 0.73576-0.87054 1.0608-0.32502 0.32499-0.67865 0.61517-1.0608 0.87053-0.38215 0.25535-0.78559 0.47097-1.2102 0.64686s-0.86236 0.30869-1.3131 0.39836c-0.45081 0.0897-0.90601 0.13449-1.3656 0.13451h-106c-0.45966-2e-5 -0.91489-0.0448-1.3657-0.13451-0.45081-0.0897-0.88852-0.22247-1.3131-0.39836-0.42466-0.17589-0.82807-0.39151-1.2102-0.64686-0.38217-0.25536-0.73578-0.54554-1.0608-0.87053-0.32501-0.32502-0.6152-0.67861-0.87054-1.0608-0.25537-0.38218-0.47101-0.78559-0.64688-1.2102-0.17591-0.42464-0.30869-0.86235-0.39835-1.3131-0.08966-0.4508-0.13449-0.90601-0.13446-1.3656v-66c-3e-5 -0.45963 0.0448-0.91484 0.13449-1.3656 0.0896-0.4508 0.22241-0.88852 0.39832-1.3132 0.17587-0.42464 0.39151-0.82805 0.64685-1.2102 0.25537-0.38216 0.54556-0.73575 0.87057-1.0607 0.32498-0.325 0.67856-0.61518 1.0607-0.87054 0.38214-0.25536 0.78555-0.47098 1.2102-0.64687 0.42462-0.1759 0.86233-0.30867 1.3131-0.39834 0.4508-0.089669 0.90603-0.1345 1.3657-0.1345z" fill="none" stroke="#82b366" stroke-miterlimit="10"/><text transform="translate(473.59 104)" fill="#000000" font-family="Helvetica" font-size="14px"><tspan x="0 10.110352 17.896484 25.682617 28.792969 32.682617 42.792969 50.579102 53.689453" y="0">Dual Rail</tspan></text><text transform="translate(472.03 120)" fill="#000000" font-family="Helvetica" font-size="14px"><tspan x="0 9.3378906 16.337891 24.124023 31.910156 39.696289 47.482422 55.268555" y="0">Expander</tspan></text></g><g transform="matrix(2.9964 0 0 2.9964 1.4982 1.4982)"><path d="m709 111h21v37.5h14.63" fill="none" stroke="#000" stroke-miterlimit="10"/><path d="m749.88 148.5-7 3.5 1.75-3.5-1.75-3.5z"/><path d="m749.88 148.5-7 3.5 1.75-3.5-1.75-3.5z" fill="none" stroke="#000" stroke-miterlimit="10"/></g><g transform="scale(2.9964)"><path d="m704 66c2.76 0 5 2.24 5 5v65c-20-12-40-12-60 0s-40 12-60 0v-65c0-2.76 2.24-5 5-5z" fill="#d5e8d4"/><path d="m704 66c2.76 0 5 2.24 5 5v65c-20-12-40-12-60 0s-40 12-60 0v-65c0-2.76 2.24-5 5-5z" fill="none" stroke="#82b366" stroke-miterlimit="10"/><text transform="translate(607.88 107)" fill="#000000" font-family="Helvetica" font-size="14px"><tspan x="0 9.0917969 12.202148 16.864258 20.753906 28.540039 36.326172 39.436523 43.326172 53.436523 61.222656 65.112305 68.222656 71.333008 78.333008" y="0">Virtual Netlist</tspan></text></g><g transform="matrix(2.9964 0 0 2.9964 1.4982 1.4982)"><path d="m267 216h20-13 13.63" fill="none" stroke="#000" stroke-miterlimit="10"/><path d="m292.88 216-7 3.5 1.75-3.5-1.75-3.5z"/><path d="m292.88 216-7 3.5 1.75-3.5-1.75-3.5z" fill="none" stroke="#000" stroke-miterlimit="10"/></g><g transform="scale(2.9964)"><path d="m262 176c2.76 0 5 2.24 5 5v65c-20-12-40-12-60 0s-40 12-60 0v-65c0-2.76 2.24-5 5-5z" fill="#d5e8d4"/><path d="m262 176c2.76 0 5 2.24 5 5v65c-20-12-40-12-60 0s-40 12-60 0v-65c0-2.76 2.24-5 5-5z" fill="none" stroke="#82b366" stroke-miterlimit="10"/><text transform="translate(165.77 217)" fill="#000000" font-family="Helvetica" font-size="14px"><tspan x="0 10.110352 13.220703 17.882812 24.882812 32.668945 35.779297 39.668945 43.558594 54.448242 59.110352 66.896484 74.682617" y="0">Circuit Graph</tspan></text></g><g transform="matrix(2.9964 0 0 2.9964 1.4982 1.4982)"><path d="m414 216h20-12 13.63" fill="none" stroke="#000" stroke-miterlimit="10"/><path d="m440.88 216-7 3.5 1.75-3.5-1.75-3.5z"/><path d="m440.88 216-7 3.5 1.75-3.5-1.75-3.5z" fill="none" stroke="#000" stroke-miterlimit="10"/></g><g transform="scale(2.9964)"><path d="m301 176h106c0.45963 0 0.91483 0.0448 1.3656 0.13451 0.45081 0.0897 0.88852 0.22244 1.3131 0.39833 0.42465 0.17588 0.82803 0.39149 1.2102 0.64685 0.38217 0.25535 0.73577 0.54554 1.0608 0.87056 0.32498 0.32499 0.61517 0.67857 0.87051 1.0607 0.25534 0.38217 0.47098 0.78558 0.64688 1.2102 0.17587 0.42463 0.30866 0.86236 0.39832 1.3132 0.0897 0.45079 0.13455 0.906 0.13458 1.3656v66c-3e-5 0.45961-0.0449 0.91483-0.13458 1.3656-0.0897 0.45079-0.22245 0.8885-0.39832 1.3131-0.1759 0.42463-0.39154 0.82805-0.64688 1.2102s-0.54553 0.73576-0.87051 1.0608c-0.32502 0.32499-0.67862 0.61517-1.0608 0.87054-0.38215 0.25534-0.78553 0.47096-1.2102 0.64685-0.42462 0.17589-0.86233 0.30867-1.3131 0.39835-0.45077 0.0897-0.90597 0.1345-1.3656 0.13452h-106c-0.45963-2e-5 -0.91486-0.0449-1.3657-0.13452-0.45081-0.0897-0.88852-0.22246-1.3131-0.39835-0.42465-0.17589-0.82807-0.39152-1.2102-0.64688-0.38217-0.25535-0.73575-0.54552-1.0607-0.87051-0.32501-0.325-0.61517-0.67859-0.87051-1.0608-0.25534-0.38218-0.47098-0.7856-0.64688-1.2102-0.17588-0.42464-0.30866-0.86235-0.39835-1.3131-0.08966-0.45079-0.13449-0.90601-0.13449-1.3656v-66c0-0.45963 0.0448-0.91484 0.13449-1.3656 0.0897-0.45081 0.22247-0.88854 0.39835-1.3132 0.1759-0.42464 0.39154-0.82805 0.64688-1.2102 0.25534-0.38215 0.5455-0.73575 0.87051-1.0607 0.32498-0.32502 0.67856-0.61519 1.0607-0.87055 0.38217-0.25535 0.78559-0.47098 1.2102-0.64686 0.42462-0.17589 0.86233-0.30866 1.3131-0.39833 0.4508-0.08968 0.90603-0.13451 1.3657-0.13451z" fill="#d5e8d4"/><path d="m301 176h106c0.45963 0 0.91483 0.0448 1.3656 0.13451 0.45081 0.0897 0.88852 0.22244 1.3131 0.39833 0.42465 0.17588 0.82803 0.39149 1.2102 0.64685 0.38217 0.25535 0.73577 0.54554 1.0608 0.87056 0.32498 0.32499 0.61517 0.67857 0.87051 1.0607 0.25534 0.38217 0.47098 0.78558 0.64688 1.2102 0.17587 0.42463 0.30866 0.86236 0.39832 1.3132 0.0897 0.45079 0.13455 0.906 0.13458 1.3656v66c-3e-5 0.45961-0.0449 0.91483-0.13458 1.3656-0.0897 0.45079-0.22245 0.8885-0.39832 1.3131-0.1759 0.42463-0.39154 0.82805-0.64688 1.2102s-0.54553 0.73576-0.87051 1.0608c-0.32502 0.32499-0.67862 0.61517-1.0608 0.87054-0.38215 0.25534-0.78553 0.47096-1.2102 0.64685-0.42462 0.17589-0.86233 0.30867-1.3131 0.39835-0.45077 0.0897-0.90597 0.1345-1.3656 0.13452h-106c-0.45963-2e-5 -0.91486-0.0449-1.3657-0.13452-0.45081-0.0897-0.88852-0.22246-1.3131-0.39835-0.42465-0.17589-0.82807-0.39152-1.2102-0.64688-0.38217-0.25535-0.73575-0.54552-1.0607-0.87051-0.32501-0.325-0.61517-0.67859-0.87051-1.0608-0.25534-0.38218-0.47098-0.7856-0.64688-1.2102-0.17588-0.42464-0.30866-0.86235-0.39835-1.3131-0.08966-0.45079-0.13449-0.90601-0.13449-1.3656v-66c0-0.45963 0.0448-0.91484 0.13449-1.3656 0.0897-0.45081 0.22247-0.88854 0.39835-1.3132 0.1759-0.42464 0.39154-0.82805 0.64688-1.2102 0.25534-0.38215 0.5455-0.73575 0.87051-1.0607 0.32498-0.32502 0.67856-0.61519 1.0607-0.87055 0.38217-0.25535 0.78559-0.47098 1.2102-0.64686 0.42462-0.17589 0.86233-0.30866 1.3131-0.39833 0.4508-0.08968 0.90603-0.13451 1.3657-0.13451z" fill="none" stroke="#82b366" stroke-miterlimit="10"/><text transform="translate(302.25,222)" fill="#000000" font-family="Helvetica" font-size="14px"><tspan x="0 10.110352 19.448242 29.558594 39.668945 43.558594 52.896484 59.896484 67.682617 75.46875 83.254883 91.041016 98.827148" y="0">HBCN Expander</tspan></text></g><g transform="matrix(2.9964 0 0 2.9964 1.4982 1.4982)"><path d="m562 216h20-13 13.63" fill="none" stroke="#000" stroke-miterlimit="10"/><path d="m587.88 216-7 3.5 1.75-3.5-1.75-3.5z"/><path d="m587.88 216-7 3.5 1.75-3.5-1.75-3.5z" fill="none" stroke="#000" stroke-miterlimit="10"/></g><g transform="scale(2.9964)"><path d="m449 176h106c0.45959 0 0.91479 0.0448 1.3656 0.13451 0.45075 0.0897 0.88849 0.22244 1.3131 0.39833 0.42462 0.17588 0.82806 0.39149 1.2102 0.64685 0.38214 0.25535 0.73577 0.54554 1.0608 0.87056 0.32501 0.32499 0.61517 0.67857 0.87054 1.0607 0.25531 0.38217 0.47095 0.78558 0.64685 1.2102 0.17591 0.42463 0.30872 0.86236 0.39838 1.3132 0.0897 0.45079 0.13458 0.906 0.13452 1.3656v66c6e-5 0.45961-0.0448 0.91483-0.13452 1.3656-0.0897 0.45079-0.22247 0.8885-0.39838 1.3131-0.1759 0.42463-0.39154 0.82805-0.64685 1.2102-0.25537 0.38217-0.54553 0.73576-0.87054 1.0608-0.32502 0.32499-0.67865 0.61517-1.0608 0.87054-0.38215 0.25534-0.78559 0.47096-1.2102 0.64685s-0.86236 0.30867-1.3131 0.39835c-0.45081 0.0897-0.90601 0.1345-1.3656 0.13452h-106c-0.45966-2e-5 -0.91489-0.0449-1.3657-0.13452-0.45081-0.0897-0.88852-0.22246-1.3131-0.39835-0.42466-0.17589-0.82807-0.39152-1.2102-0.64688-0.38217-0.25535-0.73578-0.54552-1.0608-0.87051-0.32501-0.325-0.6152-0.67859-0.87054-1.0608-0.25537-0.38218-0.47101-0.7856-0.64688-1.2102-0.17591-0.42464-0.30869-0.86235-0.39835-1.3131s-0.13449-0.90601-0.13446-1.3656v-66c-3e-5 -0.45963 0.0448-0.91484 0.13449-1.3656 0.0896-0.45081 0.22241-0.88854 0.39832-1.3132 0.17587-0.42464 0.39151-0.82805 0.64685-1.2102 0.25537-0.38215 0.54556-0.73575 0.87057-1.0607 0.32498-0.32502 0.67856-0.61519 1.0607-0.87055 0.38214-0.25535 0.78555-0.47098 1.2102-0.64686 0.42462-0.17589 0.86233-0.30866 1.3131-0.39833 0.4508-0.08968 0.90603-0.13451 1.3657-0.13451z" fill="#d5e8d4"/><path d="m449 176h106c0.45959 0 0.91479 0.0448 1.3656 0.13451 0.45075 0.0897 0.88849 0.22244 1.3131 0.39833 0.42462 0.17588 0.82806 0.39149 1.2102 0.64685 0.38214 0.25535 0.73577 0.54554 1.0608 0.87056 0.32501 0.32499 0.61517 0.67857 0.87054 1.0607 0.25531 0.38217 0.47095 0.78558 0.64685 1.2102 0.17591 0.42463 0.30872 0.86236 0.39838 1.3132 0.0897 0.45079 0.13458 0.906 0.13452 1.3656v66c6e-5 0.45961-0.0448 0.91483-0.13452 1.3656-0.0897 0.45079-0.22247 0.8885-0.39838 1.3131-0.1759 0.42463-0.39154 0.82805-0.64685 1.2102-0.25537 0.38217-0.54553 0.73576-0.87054 1.0608-0.32502 0.32499-0.67865 0.61517-1.0608 0.87054-0.38215 0.25534-0.78559 0.47096-1.2102 0.64685s-0.86236 0.30867-1.3131 0.39835c-0.45081 0.0897-0.90601 0.1345-1.3656 0.13452h-106c-0.45966-2e-5 -0.91489-0.0449-1.3657-0.13452-0.45081-0.0897-0.88852-0.22246-1.3131-0.39835-0.42466-0.17589-0.82807-0.39152-1.2102-0.64688-0.38217-0.25535-0.73578-0.54552-1.0608-0.87051-0.32501-0.325-0.6152-0.67859-0.87054-1.0608-0.25537-0.38218-0.47101-0.7856-0.64688-1.2102-0.17591-0.42464-0.30869-0.86235-0.39835-1.3131s-0.13449-0.90601-0.13446-1.3656v-66c-3e-5 -0.45963 0.0448-0.91484 0.13449-1.3656 0.0896-0.45081 0.22241-0.88854 0.39832-1.3132 0.17587-0.42464 0.39151-0.82805 0.64685-1.2102 0.25537-0.38215 0.54556-0.73575 0.87057-1.0607 0.32498-0.32502 0.67856-0.61519 1.0607-0.87055 0.38214-0.25535 0.78555-0.47098 1.2102-0.64686 0.42462-0.17589 0.86233-0.30866 1.3131-0.39833 0.4508-0.08968 0.90603-0.13451 1.3657-0.13451z" fill="none" stroke="#82b366" stroke-miterlimit="10"/><text transform="translate(467.25,214)" fill="#000000" font-family="Helvetica" font-size="14px"><tspan x="0 10.110352 17.110352 24.110352 27.220703 35.006836 38.896484 46.935547 50.045898 61.708008" y="0">Cycle Time</tspan></text><text transform="translate(465.81 230)" fill="#000000" font-family="Helvetica" font-size="14px"><tspan x="0 10.110352 17.896484 25.682617 32.682617 36.572266 41.234375 49.020508 52.130859 59.916992 67.703125" y="0">Constrainer</tspan></text></g><g transform="matrix(2.9964 0 0 2.9964 1.4982 1.4982)"><path d="m709 221h21v-37.5h14.63" fill="none" stroke="#000" stroke-miterlimit="10"/><path d="m749.88 183.5-7 3.5 1.75-3.5-1.75-3.5z"/><path d="m749.88 183.5-7 3.5 1.75-3.5-1.75-3.5z" fill="none" stroke="#000" stroke-miterlimit="10"/></g><g transform="scale(2.9964)"><path d="m704 176c2.76 0 5 2.24 5 5v65c-20-12-40-12-60 0s-40 12-60 0v-65c0-2.76 2.24-5 5-5z" fill="url(#linearGradient238)"/><path d="m704 176c2.76 0 5 2.24 5 5v65c-20-12-40-12-60 0s-40 12-60 0v-65c0-2.76 2.24-5 5-5z" fill="none" stroke="#666" stroke-miterlimit="10"/><text transform="translate(627.2 209)" fill="#333333" font-family="Helvetica" font-size="14px"><tspan x="0 10.110352 17.896484 24.896484 28.006836 35.792969" y="0">Design</tspan></text><text transform="translate(613.59 225)" fill="#333333" font-family="Helvetica" font-size="14px"><tspan x="0 10.110352 17.896484 25.682617 32.682617 36.572266 41.234375 49.020508 52.130859 59.916992 63.806641" y="0">Constraints</tspan></text></g><g transform="matrix(2.9964 0 0 2.9964 1.4982 1.4982)"><path d="m816 201v20-20 13.63" fill="none" stroke="#000" stroke-miterlimit="10"/><path d="m816 219.88-3.5-7 3.5 1.75 3.5-1.75z"/><path d="m816 219.88-3.5-7 3.5 1.75 3.5-1.75z" fill="none" stroke="#000" stroke-miterlimit="10"/></g><g transform="scale(2.9964)"><path d="m758 131h116c0.45959 0 0.91479 0.0448 1.3655 0.13451 0.45074 0.0897 0.88849 0.22244 1.3131 0.39833 0.42462 0.17588 0.82806 0.39151 1.2103 0.64686 0.38214 0.25536 0.73577 0.54553 1.0608 0.87055 0.32501 0.32499 0.61517 0.67857 0.87054 1.0607 0.25531 0.38216 0.47095 0.78557 0.64679 1.2102 0.1759 0.42463 0.30872 0.86236 0.39838 1.3132 0.0897 0.45079 0.13452 0.90601 0.13458 1.3656v56c-6e-5 0.45963-0.0449 0.91483-0.13458 1.3656-0.0897 0.45079-0.22248 0.88852-0.39838 1.3132-0.17584 0.42464-0.39148 0.82804-0.64685 1.2102-0.25531 0.38215-0.54547 0.73575-0.87048 1.0608-0.32502 0.32499-0.67865 0.61519-1.0608 0.87054-0.38221 0.25534-0.78565 0.47096-1.2103 0.64687-0.42462 0.17589-0.86237 0.30867-1.3131 0.39833-0.45075 0.0897-0.90595 0.1345-1.3655 0.13452h-116c-0.45966-2e-5 -0.91486-0.0448-1.3657-0.13452-0.45081-0.0897-0.88855-0.22244-1.3132-0.39833-0.42469-0.17591-0.82813-0.39153-1.2103-0.64687-0.38214-0.25535-0.73566-0.54555-1.0607-0.87054-0.32501-0.32501-0.61523-0.67861-0.8706-1.0608-0.25538-0.38215-0.47101-0.78555-0.64686-1.2102-0.17584-0.42463-0.30859-0.86236-0.39825-1.3132s-0.13452-0.90599-0.13446-1.3656v-56c-6e-5 -0.45964 0.0448-0.91486 0.13446-1.3656 0.0897-0.45079 0.22247-0.88852 0.39832-1.3132 0.17584-0.42464 0.39148-0.82805 0.64679-1.2102 0.25537-0.38217 0.54559-0.73575 0.8706-1.0607 0.32501-0.32502 0.67859-0.61519 1.0607-0.87055 0.38214-0.25535 0.78552-0.47098 1.2102-0.64686 0.42462-0.17589 0.86236-0.30867 1.3132-0.39833 0.45086-0.08968 0.90606-0.13451 1.3657-0.13451z" fill="#f5f5f5"/><path d="m758 131h116c0.45959 0 0.91479 0.0448 1.3655 0.13451 0.45074 0.0897 0.88849 0.22244 1.3131 0.39833 0.42462 0.17588 0.82806 0.39151 1.2103 0.64686 0.38214 0.25536 0.73577 0.54553 1.0608 0.87055 0.32501 0.32499 0.61517 0.67857 0.87054 1.0607 0.25531 0.38216 0.47095 0.78557 0.64679 1.2102 0.1759 0.42463 0.30872 0.86236 0.39838 1.3132 0.0897 0.45079 0.13452 0.90601 0.13458 1.3656v56c-6e-5 0.45963-0.0449 0.91483-0.13458 1.3656-0.0897 0.45079-0.22248 0.88852-0.39838 1.3132-0.17584 0.42464-0.39148 0.82804-0.64685 1.2102-0.25531 0.38215-0.54547 0.73575-0.87048 1.0608-0.32502 0.32499-0.67865 0.61519-1.0608 0.87054-0.38221 0.25534-0.78565 0.47096-1.2103 0.64687-0.42462 0.17589-0.86237 0.30867-1.3131 0.39833-0.45075 0.0897-0.90595 0.1345-1.3655 0.13452h-116c-0.45966-2e-5 -0.91486-0.0448-1.3657-0.13452-0.45081-0.0897-0.88855-0.22244-1.3132-0.39833-0.42469-0.17591-0.82813-0.39153-1.2103-0.64687-0.38214-0.25535-0.73566-0.54555-1.0607-0.87054-0.32501-0.32501-0.61523-0.67861-0.8706-1.0608-0.25538-0.38215-0.47101-0.78555-0.64686-1.2102-0.17584-0.42463-0.30859-0.86236-0.39825-1.3132s-0.13452-0.90599-0.13446-1.3656v-56c-6e-5 -0.45964 0.0448-0.91486 0.13446-1.3656 0.0897-0.45079 0.22247-0.88852 0.39832-1.3132 0.17584-0.42464 0.39148-0.82805 0.64679-1.2102 0.25537-0.38217 0.54559-0.73575 0.8706-1.0607 0.32501-0.32502 0.67859-0.61519 1.0607-0.87055 0.38214-0.25535 0.78552-0.47098 1.2102-0.64686 0.42462-0.17589 0.86236-0.30867 1.3132-0.39833 0.45086-0.08968 0.90606-0.13451 1.3657-0.13451z" fill="none" stroke="#666" stroke-miterlimit="10"/><g fill="#333333" font-family="Helvetica" font-size="14px"><text transform="translate(759.19 156)"><tspan x="0 9.3378906 17.124023 24.910156 32.696289 40.482422 48.268555 52.158203 55.268555 63.054688 66.165039 70.054688 79.392578 89.50293 99.613281 108.95117" y="0">Sequential SDDS-</tspan></text><text transform="translate(767.77 172)"><tspan x="0 10.110352 20.220703 28.006836 31.896484 41.234375 48.234375 56.020508 59.910156 67.696289 75.482422 82.482422 89.482422" y="0">NCL Synthesys</tspan></text><text transform="translate(801.22 188)"><tspan x="0 8.5517578 11.662109 19.448242" y="0">Flow</tspan></text></g></g><g transform="matrix(2.9964 0 0 2.9964 1.4982 1.4982)"><path d="m816 111v13.63" fill="none" stroke="#000" stroke-miterlimit="10"/><path d="m816 129.88-3.5-7 3.5 1.75 3.5-1.75z"/><path d="m816 129.88-3.5-7 3.5 1.75 3.5-1.75z" fill="none" stroke="#000" stroke-miterlimit="10"/></g><g transform="scale(2.9964)"><path d="m766 92.67v-73.34c0-10.12 22.39-18.33 50-18.33s50 8.21 50 18.33v73.34c0 10.12-22.39 18.33-50 18.33s-50-8.21-50-18.33z" fill="#d5e8d4"/><path d="m766 92.67v-73.34c0-10.12 22.39-18.33 50-18.33s50 8.21 50 18.33v73.34c0 10.12-22.39 18.33-50 18.33s-50-8.21-50-18.33z" fill="none" stroke="#82b366" stroke-miterlimit="10"/><path d="m766 19.33c0 10.13 22.39 18.34 50 18.34s50-8.21 50-18.34" fill="none" stroke="#82b366" stroke-miterlimit="10"/><g fill="#000000" font-family="Helvetica" font-size="14px"><text transform="translate(787.22 58)"><tspan x="0 10.110352 17.896484 25.682617 28.792969 33.455078 43.56543 51.351562 54.461914" y="0">Dual-Rail</tspan></text><text transform="translate(772.03 74)"><tspan x="0 9.3378906 16.337891 24.124023 31.910156 39.696289 46.696289 49.806641 57.592773 65.378906 72.378906 76.268555 84.054688" y="0">Expansions of</tspan></text><text transform="translate(777.86 90)"><tspan x="0 7 14.786133 26.448242 34.234375 42.020508 49.806641 57.592773 65.378906 69.268555" y="0">components</tspan></text></g><path d="m765.77 228.47c0-4.13 3.31-7.47 7.39-7.47h100.45c4.08 0 7.39 3.34 7.39 7.47v59.72c-18.41-7.89-39.2-7.89-57.61 0-18.42 7.88-39.2 7.88-57.62 0z" fill="#f5f5f5"/><path d="m765.77 228.47c0-4.13 3.31-7.47 7.39-7.47h100.45c4.08 0 7.39 3.34 7.39 7.47v59.72c-18.41-7.89-39.2-7.89-57.61 0-18.42 7.88-39.2 7.88-57.62 0z" fill="none" stroke="#666" stroke-miterlimit="10"/><path d="m758.39 235.93c0-4.12 3.3-7.46 7.38-7.46h100.46c4.08 0 7.38 3.34 7.38 7.46v59.72c-18.41-7.88-39.2-7.88-57.61 0-18.41 7.88-39.2 7.88-57.61 0z" fill="#f5f5f5"/><path d="m758.39 235.93c0-4.12 3.3-7.46 7.38-7.46h100.46c4.08 0 7.38 3.34 7.38 7.46v59.72c-18.41-7.88-39.2-7.88-57.61 0-18.41 7.88-39.2 7.88-57.61 0z" fill="none" stroke="#666" stroke-miterlimit="10"/><path d="m751 243.4c0-4.13 3.31-7.47 7.39-7.47h100.45c4.08 0 7.39 3.34 7.39 7.47v59.72c-18.42-7.88-39.2-7.88-57.62 0-18.41 7.88-39.2 7.88-57.61 0z" fill="#f5f5f5"/><path d="m751 243.4c0-4.13 3.31-7.47 7.39-7.47h100.45c4.08 0 7.39 3.34 7.39 7.47v59.72c-18.42-7.88-39.2-7.88-57.62 0-18.41 7.88-39.2 7.88-57.61 0z" fill="none" stroke="#666" stroke-miterlimit="10"/><g fill="#333333" font-family="Helvetica" font-size="14px"><text transform="translate(777.88 260)"><tspan x="0 10.889648 18.675781 22.56543 30.351562 38.137695 42.027344 45.916992 49.806641 57.592773" y="0">Output for</tspan></text><text transform="translate(782.94 276)"><tspan x="0 9.3378906 17.124023 24.124023 31.124023 34.234375 41.234375 49.020508" y="0">Physical</tspan></text><text transform="translate(778.66 292)"><tspan x="0 9.3378906 16.337891 24.124023 28.013672 35.799805 43.585938 50.585938 53.696289" y="0">Synthesis</tspan></text></g></g></g></g></svg>
