<?xml version="1.0" encoding="UTF-8"?>
<svg width="822.72" height="252.16" version="1.1" viewBox="0 0 822.72 252.16" xml:space="preserve" xmlns="http://www.w3.org/2000/svg" xmlns:cc="http://creativecommons.org/ns#" xmlns:dc="http://purl.org/dc/elements/1.1/" xmlns:rdf="http://www.w3.org/1999/02/22-rdf-syntax-ns#"><metadata><rdf:RDF><cc:Work rdf:about=""><dc:format>image/svg+xml</dc:format><dc:type rdf:resource="http://purl.org/dc/dcmitype/StillImage"/><dc:title/></cc:Work></rdf:RDF></metadata><defs><clipPath id="clipPath44"><path d="m0 0h2570.8v785.03h-2570.8z" clip-rule="evenodd"/></clipPath><clipPath id="clipPath56"><path d="m0 0h2570.8v785.03h-2570.8z" clip-rule="evenodd"/></clipPath></defs><g transform="matrix(.32 0 0 .32 0 6.304e-6)"><g clip-path="url(#clipPath44)"><g transform="scale(2.9963)"><path d="m0 0h858v262h-858z" fill="#fff"/></g></g><g clip-path="url(#clipPath56)"><g transform="matrix(2.9963 0 0 2.9963 1.4982 1.4982)"><path d="m121 21h19.63" fill="none" stroke="#000" stroke-miterlimit="10"/><path d="m145.88 21-7 3.5 1.75-3.5-1.75-3.5z"/><path d="m145.88 21-7 3.5 1.75-3.5-1.75-3.5z" fill="none" stroke="#000" stroke-miterlimit="10"/></g><g transform="scale(2.9963)"><path d="m116 1c2.76 0 5 2.24 5 5v65c-20-12-40-12-60 0s-40 12-60 0v-65c0-2.76 2.24-5 5-5z" fill="#dae8fc"/><path d="m116 1c2.76 0 5 2.24 5 5v65c-20-12-40-12-60 0s-40 12-60 0v-65c0-2.76 2.24-5 5-5z" fill="none" stroke="#6c8ebf" stroke-miterlimit="10"/><text transform="translate(12.094 42)" fill="#000000" font-family="Helvetica" font-size="14px"><tspan x="0 9.8642578 18.416016 26.202148 30.091797 37.87793 45.664062 52.664062 59.664062 64.326172 67.436523 75.222656 79.112305 82.222656 90.008789" y="0">RTL description</tspan></text></g><g transform="matrix(2.9963 0 0 2.9963 1.4982 1.4982)"><path d="m61 151v-60h70v-30h9.63" fill="none" stroke="#000" stroke-miterlimit="10"/><path d="m145.88 61-7 3.5 1.75-3.5-1.75-3.5z"/><path d="m145.88 61-7 3.5 1.75-3.5-1.75-3.5z" fill="none" stroke="#000" stroke-miterlimit="10"/></g><g transform="scale(2.9963)"><path d="m11 242.67v-73.34c0-10.12 22.39-18.33 50-18.33s50 8.21 50 18.33v73.34c0 10.12-22.39 18.33-50 18.33s-50-8.21-50-18.33z" fill="#d5e8d4"/><path d="m11 242.67v-73.34c0-10.12 22.39-18.33 50-18.33s50 8.21 50 18.33v73.34c0 10.12-22.39 18.33-50 18.33s-50-8.21-50-18.33z" fill="none" stroke="#82b366" stroke-miterlimit="10"/><path d="m11 169.33c0 10.13 22.39 18.34 50 18.34s50-8.21 50-18.34" fill="none" stroke="#82b366" stroke-miterlimit="10"/><text transform="translate(21.312 216)" fill="#000000" font-family="Helvetica" font-size="14px"><tspan x="0 10.110352 17.896484 29.558594 37.344727 45.130859 52.916992 60.703125 68.489258 72.378906" y="0">Components</tspan></text><text transform="translate(39.609 232)" fill="#000000" font-family="Helvetica" font-size="14px"><tspan x="0 7.7861328 10.896484 18.682617 23.344727 31.130859 35.792969" y="0">Library</tspan></text></g><g transform="matrix(2.9963 0 0 2.9963 1.4982 1.4982)"><path d="m267 41h20-13 13.63" fill="none" stroke="#000" stroke-miterlimit="10"/><path d="m292.88 41-7 3.5 1.75-3.5-1.75-3.5z"/><path d="m292.88 41-7 3.5 1.75-3.5-1.75-3.5z" fill="none" stroke="#000" stroke-miterlimit="10"/><path d="m207 81v20-10 13.63" fill="none" stroke="#000" stroke-miterlimit="10"/><path d="m207 109.88-3.5-7 3.5 1.75 3.5-1.75z"/><path d="m207 109.88-3.5-7 3.5 1.75 3.5-1.75z" fill="none" stroke="#000" stroke-miterlimit="10"/></g><g transform="scale(2.9963)"><path d="m154 1h106c0.45963 0 0.91483 0.044834 1.3656 0.1345 0.45078 0.089669 0.88849 0.22245 1.3131 0.39834 0.42462 0.17589 0.82803 0.39151 1.2102 0.64687 0.38214 0.25535 0.73571 0.54553 1.0608 0.87054 0.32501 0.32501 0.6152 0.67859 0.87054 1.0608 0.25534 0.38217 0.47095 0.78557 0.64685 1.2102 0.17587 0.42464 0.30866 0.86236 0.39835 1.3132 0.08969 0.4508 0.13452 0.90601 0.13455 1.3656v66c-3e-5 0.45962-0.0449 0.91483-0.13455 1.3656-0.0897 0.4508-0.22248 0.88851-0.39835 1.3131-0.1759 0.42464-0.39151 0.82805-0.64685 1.2102s-0.54553 0.73576-0.87054 1.0608c-0.32505 0.325-0.67862 0.61519-1.0608 0.87054-0.38218 0.25535-0.78559 0.47097-1.2102 0.64687-0.42465 0.17589-0.86236 0.30867-1.3131 0.39834-0.45077 0.089676-0.90597 0.13451-1.3656 0.13451h-106c-0.45964 0-0.91486-0.04484-1.3656-0.13451-0.45079-0.08967-0.88852-0.22245-1.3132-0.39834-0.42464-0.1759-0.82804-0.39152-1.2102-0.64687-0.38215-0.25535-0.73575-0.54553-1.0607-0.87054-0.32502-0.325-0.61519-0.6786-0.87055-1.0608-0.25535-0.38216-0.47098-0.78557-0.64686-1.2102-0.17589-0.42464-0.30867-0.86235-0.39833-1.3131-0.08968-0.45079-0.13451-0.906-0.13451-1.3656v-66c0-0.45963 0.0448-0.91484 0.13451-1.3656 0.0897-0.4508 0.22244-0.88851 0.39833-1.3132 0.17588-0.42464 0.39151-0.82804 0.64686-1.2102 0.25536-0.38217 0.54553-0.73575 0.87055-1.0608 0.32499-0.325 0.67859-0.61518 1.0607-0.87054 0.38217-0.25535 0.78557-0.47098 1.2102-0.64687 0.42463-0.17589 0.86236-0.30867 1.3132-0.39834s0.90601-0.1345 1.3656-0.1345z" fill="#d5e8d4"/><path d="m154 1h106c0.45963 0 0.91483 0.044834 1.3656 0.1345 0.45078 0.089669 0.88849 0.22245 1.3131 0.39834 0.42462 0.17589 0.82803 0.39151 1.2102 0.64687 0.38214 0.25535 0.73571 0.54553 1.0608 0.87054 0.32501 0.32501 0.6152 0.67859 0.87054 1.0608 0.25534 0.38217 0.47095 0.78557 0.64685 1.2102 0.17587 0.42464 0.30866 0.86236 0.39835 1.3132 0.08969 0.4508 0.13452 0.90601 0.13455 1.3656v66c-3e-5 0.45962-0.0449 0.91483-0.13455 1.3656-0.0897 0.4508-0.22248 0.88851-0.39835 1.3131-0.1759 0.42464-0.39151 0.82805-0.64685 1.2102s-0.54553 0.73576-0.87054 1.0608c-0.32505 0.325-0.67862 0.61519-1.0608 0.87054-0.38218 0.25535-0.78559 0.47097-1.2102 0.64687-0.42465 0.17589-0.86236 0.30867-1.3131 0.39834-0.45077 0.089676-0.90597 0.13451-1.3656 0.13451h-106c-0.45964 0-0.91486-0.04484-1.3656-0.13451-0.45079-0.08967-0.88852-0.22245-1.3132-0.39834-0.42464-0.1759-0.82804-0.39152-1.2102-0.64687-0.38215-0.25535-0.73575-0.54553-1.0607-0.87054-0.32502-0.325-0.61519-0.6786-0.87055-1.0608-0.25535-0.38216-0.47098-0.78557-0.64686-1.2102-0.17589-0.42464-0.30867-0.86235-0.39833-1.3131-0.08968-0.45079-0.13451-0.906-0.13451-1.3656v-66c0-0.45963 0.0448-0.91484 0.13451-1.3656 0.0897-0.4508 0.22244-0.88851 0.39833-1.3132 0.17588-0.42464 0.39151-0.82804 0.64686-1.2102 0.25536-0.38217 0.54553-0.73575 0.87055-1.0608 0.32499-0.325 0.67859-0.61518 1.0607-0.87054 0.38217-0.25535 0.78557-0.47098 1.2102-0.64687 0.42463-0.17589 0.86236-0.30867 1.3132-0.39834s0.90601-0.1345 1.3656-0.1345z" fill="none" stroke="#82b366" stroke-miterlimit="10"/><text transform="translate(173.53 39)" fill="#000000" font-family="Helvetica" font-size="14px"><tspan x="0 9.3378906 12.448242 20.234375 28.020508 31.130859 38.916992 42.806641 52.916992 60.703125 63.813477" y="0">Single Rail</tspan></text><text transform="translate(176.66 55)" fill="#000000" font-family="Helvetica" font-size="14px"><tspan x="0 9.3378906 16.337891 24.124023 28.013672 35.799805 43.585938 50.585938 53.696289" y="0">Synthesis</tspan></text></g><g transform="matrix(2.9963 0 0 2.9963 1.4982 1.4982)"><path d="m414 41h20-12 13.63" fill="none" stroke="#000" stroke-miterlimit="10"/><path d="m440.88 41-7 3.5 1.75-3.5-1.75-3.5z"/><path d="m440.88 41-7 3.5 1.75-3.5-1.75-3.5z" fill="none" stroke="#000" stroke-miterlimit="10"/></g><g transform="scale(2.9963)"><path d="m409 1c2.76 0 5 2.24 5 5v65c-20-12-40-12-60 0s-40 12-60 0v-65c0-2.76 2.24-5 5-5z" fill="#d5e8d4"/><path d="m409 1c2.76 0 5 2.24 5 5v65c-20-12-40-12-60 0s-40 12-60 0v-65c0-2.76 2.24-5 5-5z" fill="none" stroke="#82b366" stroke-miterlimit="10"/><text transform="translate(299.14 42)" fill="#000000" font-family="Helvetica" font-size="14px"><tspan x="0 9.3378906 12.448242 20.234375 28.020508 31.130859 38.916992 42.806641 52.916992 60.703125 63.813477 66.923828 70.813477 80.923828 88.709961 92.599609 95.709961 98.820312 105.82031" y="0">Single Rail Netlist</tspan></text></g><g transform="matrix(2.9963 0 0 2.9963 1.4982 1.4982)"><path d="m562 41h20-13 13.63" fill="none" stroke="#000" stroke-miterlimit="10"/><path d="m587.88 41-7 3.5 1.75-3.5-1.75-3.5z"/><path d="m587.88 41-7 3.5 1.75-3.5-1.75-3.5z" fill="none" stroke="#000" stroke-miterlimit="10"/></g><g transform="scale(2.9963)"><path d="m449 1h106c0.45959 0 0.91479 0.044834 1.3656 0.1345 0.45075 0.089669 0.88849 0.22245 1.3131 0.39834 0.42462 0.17589 0.82806 0.39151 1.2102 0.64687 0.38214 0.25535 0.73577 0.54553 1.0608 0.87054 0.32501 0.32501 0.61517 0.67859 0.87054 1.0608 0.25531 0.38217 0.47095 0.78557 0.64685 1.2102 0.17591 0.42464 0.30872 0.86236 0.39838 1.3132 0.08972 0.4508 0.13458 0.90601 0.13452 1.3656v66c6e-5 0.45962-0.0448 0.91483-0.13452 1.3656-0.0897 0.4508-0.22247 0.88851-0.39838 1.3131-0.1759 0.42464-0.39154 0.82805-0.64685 1.2102-0.25537 0.38216-0.54553 0.73576-0.87054 1.0608-0.32502 0.325-0.67865 0.61519-1.0608 0.87054-0.38215 0.25535-0.78559 0.47097-1.2102 0.64687-0.42462 0.17589-0.86236 0.30867-1.3131 0.39834-0.45081 0.089676-0.90601 0.13451-1.3656 0.13451h-106c-0.45966 0-0.91489-0.04484-1.3657-0.13451-0.45081-0.08967-0.88852-0.22245-1.3131-0.39834-0.42466-0.1759-0.82807-0.39152-1.2102-0.64687-0.38217-0.25535-0.73578-0.54553-1.0608-0.87054-0.32501-0.325-0.6152-0.6786-0.87054-1.0608-0.25537-0.38216-0.47101-0.78557-0.64688-1.2102-0.17591-0.42464-0.30869-0.86235-0.39835-1.3131-0.08966-0.45079-0.13449-0.906-0.13446-1.3656v-66c-3e-5 -0.45963 0.0448-0.91484 0.13449-1.3656 0.0896-0.4508 0.22241-0.88851 0.39832-1.3132 0.17587-0.42464 0.39151-0.82804 0.64685-1.2102 0.25537-0.38217 0.54556-0.73575 0.87057-1.0608 0.32498-0.325 0.67856-0.61518 1.0607-0.87054 0.38214-0.25535 0.78555-0.47098 1.2102-0.64687 0.42462-0.17589 0.86233-0.30867 1.3131-0.39834 0.4508-0.089669 0.90603-0.1345 1.3657-0.1345z" fill="#d5e8d4"/><path d="m449 1h106c0.45959 0 0.91479 0.044834 1.3656 0.1345 0.45075 0.089669 0.88849 0.22245 1.3131 0.39834 0.42462 0.17589 0.82806 0.39151 1.2102 0.64687 0.38214 0.25535 0.73577 0.54553 1.0608 0.87054 0.32501 0.32501 0.61517 0.67859 0.87054 1.0608 0.25531 0.38217 0.47095 0.78557 0.64685 1.2102 0.17591 0.42464 0.30872 0.86236 0.39838 1.3132 0.08972 0.4508 0.13458 0.90601 0.13452 1.3656v66c6e-5 0.45962-0.0448 0.91483-0.13452 1.3656-0.0897 0.4508-0.22247 0.88851-0.39838 1.3131-0.1759 0.42464-0.39154 0.82805-0.64685 1.2102-0.25537 0.38216-0.54553 0.73576-0.87054 1.0608-0.32502 0.325-0.67865 0.61519-1.0608 0.87054-0.38215 0.25535-0.78559 0.47097-1.2102 0.64687-0.42462 0.17589-0.86236 0.30867-1.3131 0.39834-0.45081 0.089676-0.90601 0.13451-1.3656 0.13451h-106c-0.45966 0-0.91489-0.04484-1.3657-0.13451-0.45081-0.08967-0.88852-0.22245-1.3131-0.39834-0.42466-0.1759-0.82807-0.39152-1.2102-0.64687-0.38217-0.25535-0.73578-0.54553-1.0608-0.87054-0.32501-0.325-0.6152-0.6786-0.87054-1.0608-0.25537-0.38216-0.47101-0.78557-0.64688-1.2102-0.17591-0.42464-0.30869-0.86235-0.39835-1.3131-0.08966-0.45079-0.13449-0.906-0.13446-1.3656v-66c-3e-5 -0.45963 0.0448-0.91484 0.13449-1.3656 0.0896-0.4508 0.22241-0.88851 0.39832-1.3132 0.17587-0.42464 0.39151-0.82804 0.64685-1.2102 0.25537-0.38217 0.54556-0.73575 0.87057-1.0608 0.32498-0.325 0.67856-0.61518 1.0607-0.87054 0.38214-0.25535 0.78555-0.47098 1.2102-0.64687 0.42462-0.17589 0.86233-0.30867 1.3131-0.39834 0.4508-0.089669 0.90603-0.1345 1.3657-0.1345z" fill="none" stroke="#82b366" stroke-miterlimit="10"/><text transform="translate(473.59 39)" fill="#000000" font-family="Helvetica" font-size="14px"><tspan x="0 10.110352 17.896484 25.682617 28.792969 32.682617 42.792969 50.579102 53.689453" y="0">Dual Rail</tspan></text><text transform="translate(472.03 55)" fill="#000000" font-family="Helvetica" font-size="14px"><tspan x="0 9.3378906 16.337891 24.124023 31.910156 39.696289 47.482422 55.268555" y="0">Expander</tspan></text></g><g transform="matrix(2.9963 0 0 2.9963 1.4982 1.4982)"><path d="m267 151h20-13 13.63" fill="none" stroke="#000" stroke-miterlimit="10"/><path d="m292.88 151-7 3.5 1.75-3.5-1.75-3.5z"/><path d="m292.88 151-7 3.5 1.75-3.5-1.75-3.5z" fill="none" stroke="#000" stroke-miterlimit="10"/></g><g transform="scale(2.9963)"><path d="m262 111c2.76 0 5 2.24 5 5v65c-20-12-40-12-60 0s-40 12-60 0v-65c0-2.76 2.24-5 5-5z" fill="#fff2cc"/><path d="m262 111c2.76 0 5 2.24 5 5v65c-20-12-40-12-60 0s-40 12-60 0v-65c0-2.76 2.24-5 5-5z" fill="none" stroke="#d6b656" stroke-miterlimit="10"/><text transform="translate(165.77 152)" fill="#000000" font-family="Helvetica" font-size="14px"><tspan x="0 10.110352 13.220703 17.882812 24.882812 32.668945 35.779297 39.668945 43.558594 54.448242 59.110352 66.896484 74.682617" y="0">Circuit Graph</tspan></text></g><g transform="matrix(2.9963 0 0 2.9963 1.4982 1.4982)"><path d="m414 151h21.63" fill="none" stroke="#000" stroke-miterlimit="10"/><path d="m440.88 151-7 3.5 1.75-3.5-1.75-3.5z"/><path d="m440.88 151-7 3.5 1.75-3.5-1.75-3.5z" fill="none" stroke="#000" stroke-miterlimit="10"/></g><g transform="scale(2.9963)"><path d="m301 111h106c0.45963 0 0.91483 0.0448 1.3656 0.1345 0.45081 0.0897 0.88852 0.22244 1.3131 0.39833 0.42465 0.17589 0.82803 0.39152 1.2102 0.64688 0.38217 0.25535 0.73577 0.54553 1.0608 0.87054 0.32498 0.325 0.61517 0.67859 0.87051 1.0608s0.47098 0.78557 0.64688 1.2102c0.17587 0.42464 0.30866 0.86235 0.39832 1.3132 0.0897 0.4508 0.13455 0.90601 0.13458 1.3656v66c-3e-5 0.45961-0.0449 0.91483-0.13458 1.3656-0.0897 0.45079-0.22245 0.8885-0.39832 1.3131-0.1759 0.42463-0.39154 0.82803-0.64688 1.2102-0.25534 0.38217-0.54553 0.73576-0.87051 1.0608-0.32502 0.32501-0.67862 0.61519-1.0608 0.87053-0.38215 0.25536-0.78553 0.47098-1.2102 0.64687-0.42462 0.17589-0.86233 0.30868-1.3131 0.39836-0.45077 0.0897-0.90597 0.1345-1.3656 0.13452h-106c-0.45963-2e-5 -0.91486-0.0449-1.3657-0.13454-0.45081-0.0897-0.88852-0.22245-1.3131-0.39834-0.42465-0.17589-0.82807-0.39151-1.2102-0.64687-0.38217-0.25534-0.73575-0.54552-1.0607-0.87053-0.32501-0.32501-0.61517-0.6786-0.87051-1.0608-0.25534-0.38217-0.47098-0.78557-0.64688-1.2102-0.17588-0.42464-0.30866-0.86235-0.39835-1.3131-0.08966-0.45079-0.13449-0.90601-0.13449-1.3656v-66c0-0.45963 0.0448-0.91483 0.13449-1.3656 0.0897-0.4508 0.22247-0.88852 0.39835-1.3132 0.1759-0.42464 0.39154-0.82805 0.64688-1.2102s0.5455-0.73575 0.87051-1.0608c0.32498-0.32501 0.67856-0.61519 1.0607-0.87054 0.38217-0.25536 0.78559-0.47099 1.2102-0.64688 0.42462-0.17589 0.86233-0.30866 1.3131-0.39833 0.4508-0.08967 0.90603-0.1345 1.3657-0.1345z" fill="#f8cecc"/><path d="m301 111h106c0.45963 0 0.91483 0.0448 1.3656 0.1345 0.45081 0.0897 0.88852 0.22244 1.3131 0.39833 0.42465 0.17589 0.82803 0.39152 1.2102 0.64688 0.38217 0.25535 0.73577 0.54553 1.0608 0.87054 0.32498 0.325 0.61517 0.67859 0.87051 1.0608s0.47098 0.78557 0.64688 1.2102c0.17587 0.42464 0.30866 0.86235 0.39832 1.3132 0.0897 0.4508 0.13455 0.90601 0.13458 1.3656v66c-3e-5 0.45961-0.0449 0.91483-0.13458 1.3656-0.0897 0.45079-0.22245 0.8885-0.39832 1.3131-0.1759 0.42463-0.39154 0.82803-0.64688 1.2102-0.25534 0.38217-0.54553 0.73576-0.87051 1.0608-0.32502 0.32501-0.67862 0.61519-1.0608 0.87053-0.38215 0.25536-0.78553 0.47098-1.2102 0.64687-0.42462 0.17589-0.86233 0.30868-1.3131 0.39836-0.45077 0.0897-0.90597 0.1345-1.3656 0.13452h-106c-0.45963-2e-5 -0.91486-0.0449-1.3657-0.13454-0.45081-0.0897-0.88852-0.22245-1.3131-0.39834-0.42465-0.17589-0.82807-0.39151-1.2102-0.64687-0.38217-0.25534-0.73575-0.54552-1.0607-0.87053-0.32501-0.32501-0.61517-0.6786-0.87051-1.0608-0.25534-0.38217-0.47098-0.78557-0.64688-1.2102-0.17588-0.42464-0.30866-0.86235-0.39835-1.3131-0.08966-0.45079-0.13449-0.90601-0.13449-1.3656v-66c0-0.45963 0.0448-0.91483 0.13449-1.3656 0.0897-0.4508 0.22247-0.88852 0.39835-1.3132 0.1759-0.42464 0.39154-0.82805 0.64688-1.2102s0.5455-0.73575 0.87051-1.0608c0.32498-0.32501 0.67856-0.61519 1.0607-0.87054 0.38217-0.25536 0.78559-0.47099 1.2102-0.64688 0.42462-0.17589 0.86233-0.30866 1.3131-0.39833 0.4508-0.08967 0.90603-0.1345 1.3657-0.1345z" fill="none" stroke="#b85450" stroke-miterlimit="10"/><text transform="translate(296.03 157)" fill="#000000" font-family="Helvetica" font-size="14px"><tspan x="0 10.110352 19.448242 29.558594 39.668945 43.558594 53.668945 61.455078 69.241211 76.241211 80.130859 84.792969 92.579102 95.689453 103.47559 111.26172" y="0">HBCN Constrainer</tspan></text></g><g transform="matrix(2.9963 0 0 2.9963 1.4982 1.4982)"><path d="m562 151h20-13 13.63" fill="none" stroke="#000" stroke-miterlimit="10"/><path d="m587.88 151-7 3.5 1.75-3.5-1.75-3.5z"/><path d="m587.88 151-7 3.5 1.75-3.5-1.75-3.5z" fill="none" stroke="#000" stroke-miterlimit="10"/></g><g transform="scale(2.9963)"><path d="m557 111c2.76 0 5 2.24 5 5v65c-20-12-40-12-60 0s-40 12-60 0v-65c0-2.76 2.24-5 5-5z" fill="#f8cecc"/><path d="m557 111c2.76 0 5 2.24 5 5v65c-20-12-40-12-60 0s-40 12-60 0v-65c0-2.76 2.24-5 5-5z" fill="none" stroke="#b85450" stroke-miterlimit="10"/><text transform="translate(480.2 144)" fill="#000000" font-family="Helvetica" font-size="14px"><tspan x="0 10.110352 17.896484 24.896484 28.006836 35.792969" y="0">Design</tspan></text><text transform="translate(466.59 160)" fill="#000000" font-family="Helvetica" font-size="14px"><tspan x="0 10.110352 17.896484 25.682617 32.682617 36.572266 41.234375 49.020508 52.130859 59.916992 63.806641" y="0">Constraints</tspan></text></g><g transform="matrix(2.9963 0 0 2.9963 1.4982 1.4982)"><path d="m619 21v80-10 13.63" fill="none" stroke="#000" stroke-miterlimit="10"/><path d="m619 109.88-3.5-7 3.5 1.75 3.5-1.75z"/><path d="m619 109.88-3.5-7 3.5 1.75 3.5-1.75z" fill="none" stroke="#000" stroke-miterlimit="10"/><path d="m709 151h82v13.63" fill="none" stroke="#000" stroke-miterlimit="10"/><path d="m791 169.88-3.5-7 3.5 1.75 3.5-1.75z"/><path d="m791 169.88-3.5-7 3.5 1.75 3.5-1.75z" fill="none" stroke="#000" stroke-miterlimit="10"/><path d="m741 76h-62v28.63" fill="none" stroke="#000" stroke-miterlimit="10"/><path d="m679 109.88-3.5-7 3.5 1.75 3.5-1.75z"/><path d="m679 109.88-3.5-7 3.5 1.75 3.5-1.75z" fill="none" stroke="#000" stroke-miterlimit="10"/></g><g transform="scale(2.9963)"><path d="m596 111h106c0.45966 0 0.91486 0.0448 1.3656 0.1345 0.45081 0.0897 0.88849 0.22244 1.3131 0.39833s0.828 0.39152 1.2102 0.64688c0.38214 0.25535 0.73571 0.54553 1.0607 0.87054 0.32501 0.325 0.61517 0.67859 0.87054 1.0608s0.47101 0.78557 0.64685 1.2102c0.1759 0.42464 0.30866 0.86235 0.39832 1.3132 0.0897 0.4508 0.13458 0.90601 0.13464 1.3656v66c-6e-5 0.45961-0.0449 0.91483-0.13458 1.3656-0.0897 0.45079-0.22248 0.8885-0.39838 1.3131-0.17584 0.42463-0.39148 0.82803-0.64685 1.2102-0.25537 0.38217-0.54553 0.73576-0.87054 1.0608-0.32502 0.32501-0.67859 0.61519-1.0607 0.87053-0.38221 0.25536-0.78559 0.47098-1.2102 0.64687s-0.8623 0.30868-1.3131 0.39836c-0.45074 0.0897-0.90594 0.1345-1.3656 0.13452h-106c-0.45966-2e-5 -0.91486-0.0449-1.3657-0.13454-0.45081-0.0897-0.88855-0.22245-1.3132-0.39834s-0.82807-0.39151-1.2102-0.64687c-0.38214-0.25534-0.73572-0.54552-1.0607-0.87053-0.32507-0.32501-0.61529-0.6786-0.8706-1.0608-0.25537-0.38217-0.47101-0.78557-0.64692-1.2102-0.17584-0.42464-0.30859-0.86235-0.39825-1.3131s-0.13446-0.90601-0.13446-1.3656v-66c0-0.45963 0.0448-0.91483 0.13446-1.3656 0.0897-0.4508 0.22241-0.88852 0.39825-1.3132 0.17591-0.42464 0.39155-0.82805 0.64692-1.2102 0.25531-0.38216 0.54553-0.73575 0.8706-1.0608 0.32501-0.32501 0.67859-0.61519 1.0607-0.87054 0.38214-0.25536 0.78559-0.47099 1.2102-0.64688s0.86236-0.30866 1.3132-0.39833c0.4508-0.08967 0.906-0.1345 1.3657-0.1345z" fill="#f8cecc"/><path d="m596 111h106c0.45966 0 0.91486 0.0448 1.3656 0.1345 0.45081 0.0897 0.88849 0.22244 1.3131 0.39833s0.828 0.39152 1.2102 0.64688c0.38214 0.25535 0.73571 0.54553 1.0607 0.87054 0.32501 0.325 0.61517 0.67859 0.87054 1.0608s0.47101 0.78557 0.64685 1.2102c0.1759 0.42464 0.30866 0.86235 0.39832 1.3132 0.0897 0.4508 0.13458 0.90601 0.13464 1.3656v66c-6e-5 0.45961-0.0449 0.91483-0.13458 1.3656-0.0897 0.45079-0.22248 0.8885-0.39838 1.3131-0.17584 0.42463-0.39148 0.82803-0.64685 1.2102-0.25537 0.38217-0.54553 0.73576-0.87054 1.0608-0.32502 0.32501-0.67859 0.61519-1.0607 0.87053-0.38221 0.25536-0.78559 0.47098-1.2102 0.64687s-0.8623 0.30868-1.3131 0.39836c-0.45074 0.0897-0.90594 0.1345-1.3656 0.13452h-106c-0.45966-2e-5 -0.91486-0.0449-1.3657-0.13454-0.45081-0.0897-0.88855-0.22245-1.3132-0.39834s-0.82807-0.39151-1.2102-0.64687c-0.38214-0.25534-0.73572-0.54552-1.0607-0.87053-0.32507-0.32501-0.61529-0.6786-0.8706-1.0608-0.25537-0.38217-0.47101-0.78557-0.64692-1.2102-0.17584-0.42464-0.30859-0.86235-0.39825-1.3131s-0.13446-0.90601-0.13446-1.3656v-66c0-0.45963 0.0448-0.91483 0.13446-1.3656 0.0897-0.4508 0.22241-0.88852 0.39825-1.3132 0.17591-0.42464 0.39155-0.82805 0.64692-1.2102 0.25531-0.38216 0.54553-0.73575 0.8706-1.0608 0.32501-0.32501 0.67859-0.61519 1.0607-0.87054 0.38214-0.25536 0.78559-0.47099 1.2102-0.64688s0.86236-0.30866 1.3132-0.39833c0.4508-0.08967 0.906-0.1345 1.3657-0.1345z" fill="none" stroke="#b85450" stroke-miterlimit="10"/><g fill="#000000" font-family="Helvetica" font-size="14px"><text transform="translate(592.19 141)"><tspan x="0 9.3378906 17.124023 24.910156 32.696289 40.482422 48.268555 52.158203 55.268555 63.054688 66.165039 70.054688 79.392578 89.50293 99.613281 108.95117" y="0">Sequential SDDS-</tspan></text><text transform="translate(600.77 157)"><tspan x="0 10.110352 20.220703 28.006836 31.896484 41.234375 48.234375 56.020508 59.910156 67.696289 75.482422 82.482422 89.482422" y="0">NCL Synthesys</tspan></text><text transform="translate(634.22 173)"><tspan x="0 8.5517578 11.662109 19.448242" y="0">Flow</tspan></text></g><path d="m741 112.67v-73.34c0-10.12 22.39-18.33 50-18.33s50 8.21 50 18.33v73.34c0 10.12-22.39 18.33-50 18.33s-50-8.21-50-18.33z" fill="#f8cecc"/><path d="m741 112.67v-73.34c0-10.12 22.39-18.33 50-18.33s50 8.21 50 18.33v73.34c0 10.12-22.39 18.33-50 18.33s-50-8.21-50-18.33z" fill="none" stroke="#b85450" stroke-miterlimit="10"/><path d="m741 39.33c0 10.13 22.39 18.34 50 18.34s50-8.21 50-18.34" fill="none" stroke="#b85450" stroke-miterlimit="10"/><g fill="#000000" font-family="Helvetica" font-size="14px"><text transform="translate(762.22 78)"><tspan x="0 10.110352 17.896484 25.682617 28.792969 33.455078 43.56543 51.351562 54.461914" y="0">Dual-Rail</tspan></text><text transform="translate(747.03 94)"><tspan x="0 9.3378906 16.337891 24.124023 31.910156 39.696289 46.696289 49.806641 57.592773 65.378906 72.378906 76.268555 84.054688" y="0">Expansions of</tspan></text><text transform="translate(752.86 110)"><tspan x="0 7 14.786133 26.448242 34.234375 42.020508 49.806641 57.592773 65.378906 69.268555" y="0">components</tspan></text></g><path d="m740.77 178.47c0-4.13 3.31-7.47 7.39-7.47h100.45c4.08 0 7.39 3.34 7.39 7.47v59.72c-18.41-7.89-39.2-7.89-57.61 0-18.42 7.88-39.2 7.88-57.62 0z" fill="#ffe6cc"/><path d="m740.77 178.47c0-4.13 3.31-7.47 7.39-7.47h100.45c4.08 0 7.39 3.34 7.39 7.47v59.72c-18.41-7.89-39.2-7.89-57.61 0-18.42 7.88-39.2 7.88-57.62 0z" fill="none" stroke="#d79b00" stroke-miterlimit="10"/><path d="m733.39 185.93c0-4.12 3.3-7.46 7.38-7.46h100.46c4.08 0 7.38 3.34 7.38 7.46v59.72c-18.41-7.88-39.2-7.88-57.61 0-18.41 7.88-39.2 7.88-57.61 0z" fill="#ffe6cc"/><path d="m733.39 185.93c0-4.12 3.3-7.46 7.38-7.46h100.46c4.08 0 7.38 3.34 7.38 7.46v59.72c-18.41-7.88-39.2-7.88-57.61 0-18.41 7.88-39.2 7.88-57.61 0z" fill="none" stroke="#d79b00" stroke-miterlimit="10"/><path d="m726 193.4c0-4.13 3.31-7.47 7.39-7.47h100.45c4.08 0 7.39 3.34 7.39 7.47v59.72c-18.42-7.88-39.2-7.88-57.62 0-18.41 7.88-39.2 7.88-57.61 0z" fill="#ffe6cc"/><path d="m726 193.4c0-4.13 3.31-7.47 7.39-7.47h100.45c4.08 0 7.39 3.34 7.39 7.47v59.72c-18.42-7.88-39.2-7.88-57.62 0-18.41 7.88-39.2 7.88-57.61 0z" fill="none" stroke="#d79b00" stroke-miterlimit="10"/><g fill="#000000" font-family="Helvetica" font-size="14px"><text transform="translate(752.88 210)"><tspan x="0 10.889648 18.675781 22.56543 30.351562 38.137695 42.027344 45.916992 49.806641 57.592773" y="0">Output for</tspan></text><text transform="translate(757.94 226)"><tspan x="0 9.3378906 17.124023 24.124023 31.124023 34.234375 41.234375 49.020508" y="0">Physical</tspan></text><text transform="translate(753.66 242)"><tspan x="0 9.3378906 16.337891 24.124023 28.013672 35.799805 43.585938 50.585938 53.696289" y="0">Synthesis</tspan></text></g><path d="m704 1c2.76 0 5 2.24 5 5v65c-20-12-40-12-60 0s-40 12-60 0v-65c0-2.76 2.24-5 5-5z" fill="#fff2cc"/><path d="m704 1c2.76 0 5 2.24 5 5v65c-20-12-40-12-60 0s-40 12-60 0v-65c0-2.76 2.24-5 5-5z" fill="none" stroke="#d6b656" stroke-miterlimit="10"/><text transform="translate(607.88 42)" fill="#000000" font-family="Helvetica" font-size="14px"><tspan x="0 9.0917969 12.202148 16.864258 20.753906 28.540039 36.326172 39.436523 43.326172 53.436523 61.222656 65.112305 68.222656 71.333008 78.333008" y="0">Virtual Netlist</tspan></text></g></g></g></svg>
