<?xml version="1.0" encoding="UTF-8"?>
<svg width="617.28" height="836.16" version="1.1" viewBox="0 0 617.28 836.16" xml:space="preserve" xmlns="http://www.w3.org/2000/svg" xmlns:cc="http://creativecommons.org/ns#" xmlns:dc="http://purl.org/dc/elements/1.1/" xmlns:rdf="http://www.w3.org/1999/02/22-rdf-syntax-ns#"><metadata><rdf:RDF><cc:Work rdf:about=""><dc:format>image/svg+xml</dc:format><dc:type rdf:resource="http://purl.org/dc/dcmitype/StillImage"/><dc:title/></cc:Work></rdf:RDF></metadata><defs><clipPath id="clipPath18"><path d="m0 0h1929.2v2612.2h-1929.2z" clip-rule="evenodd"/></clipPath><clipPath id="clipPath30"><path d="m0 0h1929.2v2606.2h-1929.2z" clip-rule="evenodd"/></clipPath></defs><g transform="matrix(.32 0 0 .32 0 2.0904e-5)"><g clip-path="url(#clipPath18)"><g transform="scale(2.9956)"><path d="m0 0h644v872h-644z" fill="#fff"/></g></g><g clip-path="url(#clipPath30)"><g transform="scale(2.9956)"><text transform="translate(433.5,749)" fill="#000000" font-family="Helvetica" font-size="12px" font-weight="bold"><tspan x="0 8.6660156" y="0">No</tspan></text></g><g transform="matrix(2.9956 0 0 2.9956 1.4978 1.4978)"><path d="m481 494h20-6.5 13.63" fill="none" stroke="#000" stroke-miterlimit="10"/><path d="m513.38 494-7 3.5 1.75-3.5-1.75-3.5z"/><path d="m513.38 494-7 3.5 1.75-3.5-1.75-3.5z" fill="none" stroke="#000" stroke-miterlimit="10"/></g><g transform="scale(2.9956)"><path d="m426 439 55 55-55 55-55-55z" fill="#f5f5f5"/><path d="m426 439 55 55-55 55-55-55z" fill="none" stroke="#666" stroke-miterlimit="10"/><g><text transform="translate(386.88 492)" fill="#333333" font-family="Helvetica" font-size="12px"><tspan x="0 6.890625 10.886719 16.886719 20.220703 23.554688 30.228516 33.5625 40.236328 46.910156 50.244141 52.910156 62.90625 65.572266 71.572266" y="0">Try to optimise</tspan></text><text transform="translate(407.98 506)" fill="#333333" font-family="Helvetica" font-size="12px"><tspan x="0 6.6738281 13.347656 20.021484 22.6875 29.361328" y="0">again?</tspan></text><path d="m229.79 33.57v51.43h-118.79v-60h101.82z" fill="#d5e8d4"/></g><path d="m229.79 33.57v51.43h-118.79v-60h101.82z" fill="none" stroke="#82b366" stroke-miterlimit="10"/><path d="m212.82 25c1.38 2.01-0.89002 4.07-6.06 5.51l24.24 3.49z" fill="#d5e8d4"/><path d="m212.82 25c1.38 2.01-0.89002 4.07-6.06 5.51l24.24 3.49z" fill="none" stroke="#82b366" stroke-miterlimit="10"/><text transform="translate(135.75,60)" fill="#000000" font-family="Helvetica" font-size="12px"><tspan x="0 7.7929688 10.458984 14.455078 17.789062 24.462891 31.136719 33.802734 37.136719 45.802734 52.476562 55.810547 58.476562 61.142578 67.142578" y="0">Virtual Netlist</tspan></text></g><g transform="matrix(2.9956 0 0 2.9956 1.4978 1.4978)"><path d="m270 205v13.63" fill="none" stroke="#000" stroke-miterlimit="10"/><path d="m270 223.88-3.5-7 3.5 1.75 3.5-1.75z"/><path d="m270 223.88-3.5-7 3.5 1.75 3.5-1.75z" fill="none" stroke="#000" stroke-miterlimit="10"/></g><g transform="scale(2.9956)"><path d="m210 145h120v60h-120z" fill="#fff2cc"/><path d="m210 145h120v60h-120z" fill="none" stroke="#d6b656" stroke-miterlimit="10"/><text transform="translate(227.97 173)" fill="#000000" font-family="Helvetica" font-size="12px"><tspan x="0 6.6738281 13.347656 20.021484 22.6875 28.6875 32.021484 40.025391 46.025391 52.699219 56.033203 62.707031 69.380859 75.380859 78.046875" y="0">Logic Synthesis</tspan></text><text transform="translate(223.3 187)" fill="#000000" font-family="Helvetica" font-size="12px"><tspan x="0 3.3339844 10.007812 16.681641 23.355469 26.689453 36.023438 42.697266 46.03125 48.697266 58.693359 61.359375 67.359375 74.033203 77.367188 80.033203 86.707031" y="0"> and Optimisation</tspan></text></g><g transform="matrix(2.9956 0 0 2.9956 1.4978 1.4978)"><path d="m171 85v30h69v23.63" fill="none" stroke="#000" stroke-miterlimit="10"/><path d="m240 143.88-3.5-7 3.5 1.75 3.5-1.75z"/><path d="m240 143.88-3.5-7 3.5 1.75 3.5-1.75z" fill="none" stroke="#000" stroke-miterlimit="10"/><path d="m270 285v13.63" fill="none" stroke="#000" stroke-miterlimit="10"/><path d="m270 303.88-3.5-7 3.5 1.75 3.5-1.75z"/><path d="m270 303.88-3.5-7 3.5 1.75 3.5-1.75z" fill="none" stroke="#000" stroke-miterlimit="10"/></g><g transform="scale(2.9956)"><path d="m328.79 233.57v51.43h-118.79v-60h101.82z" fill="#d5e8d4"/><path d="m328.79 233.57v51.43h-118.79v-60h101.82z" fill="none" stroke="#82b366" stroke-miterlimit="10"/><path d="m311.82 225c1.38 2.01-0.89002 4.07-6.06 5.51l24.24 3.49z" fill="#d5e8d4"/><path d="m311.82 225c1.38 2.01-0.89002 4.07-6.06 5.51l24.24 3.49z" fill="none" stroke="#82b366" stroke-miterlimit="10"/><text transform="translate(223.97 260)" fill="#000000" font-family="Helvetica" font-size="12px"><tspan x="0 9.9960938 16.669922 23.34375 30.017578 36.691406 43.365234 46.699219 54.703125 58.699219 67.365234 74.039062 77.373047 80.039062 82.705078 88.705078" y="0">Mapped X-Netlist</tspan></text><path d="m210 305h120v60h-120z" fill="#fff2cc"/><path d="m210 305h120v60h-120z" fill="none" stroke="#d6b656" stroke-miterlimit="10"/><text transform="translate(237.66 340)" fill="#000000" font-family="Helvetica" font-size="12px"><tspan x="0 7.3300781 9.9960938 15.996094 19.330078 27.333984 31.330078 39.996094 46.669922 50.003906 52.669922 55.335938 61.335938" y="0">Fix X-Netlist</tspan></text></g><g transform="matrix(2.9956 0 0 2.9956 1.4978 1.4978)"><path d="m41 235v3h-1v-3zm0 6v3h-1v-3zm0 6v3h-1v-3zm0 6v3h-1v-3zm0 6v3h-1v-3zm0 6v3h-1v-3zm0 6v3h-1v-3zm0 6v3h-1v-3zm0 6v3h-1v-3zm0 6v3h-1v-3zm0 6v3h-1v-3zm0 6v3h-1v-3zm0 6v3h-1v-3zm0 6v3h-1v-3zm0 6v3h-1v-3zm0 6v3h-1v-3zm0 6v3h-1v-3zm0 6v3h-1v-3zm0 6v3h-1v-3zm0 6v3h-1v-3zm0 6v3h-1v-3zm0 6v3h-1v-3zm0 6v3h-1v-3zm0 6v3h-1v-3zm0 6v3h-1v-3zm0 6v3h-1v-3zm0 6v3h-1v-3zm0 6v3h-1v-3zm0 6v3h-1v-3zm0 6v3h-1v-3zm0 6v3h-1v-3zm0 6v3h-1v-3zm0 6v3h-1v-3zm0 6v3h-1v-3zm0 6v3h-1v-3zm0 6v3h-1v-3zm0 6v3h-1v-3zm0 6v3h-1v-3zm0 6v3h-1v-3zm0 6v3h-1v-3zm0 6v3h-1v-3zm0 6v3h-1v-3zm0 6v3h-1v-3zm0 6v3h-1v-3zm0 6v3h-1v-3zm0 6v3h-1v-3zm0 6v3h-1v-3zm0 6v3h-1v-3zm0 6v3h-1v-3zm0 6v3h-1v-3zm0 6v3h-1v-3zm0 6v3h-1v-3zm0 6v3h-1v-3zm0 6v3h-1v-3zm0 6v3h-1v-3zm0 6v3h-1v-3zm0 6v3h-1v-3zm2.5 2.5h3v1h-3zm6 0h3v1h-3zm6 0h3v1h-3zm6 0h3v1h-3zm6 0h3v1h-3zm6 0h3v1h-3zm6 0h3v1h-3zm6 0h3v1h-3zm6 0h3v1h-3zm6 0h3v1h-3zm6 0h3v1h-3zm6 0h3v1h-3zm6 0h3v1h-3zm6 0h3v1h-3zm6 0h3v1h-3zm6 0h3v1h-3zm6 0h3v1h-3zm6 0h3v1h-3zm6 0h3v1h-3zm6 0h3v1h-3zm6 0h3v1h-3zm6 0h3v1h-3zm6 0h3v1h-3zm6 0h3v1h-3zm6 0h3v1h-3zm6 0h3v1h-3zm6 0h3v1h-3z"/><path d="m208.88 574-7 3.5 1.75-3.5-1.75-3.5z"/><path d="m208.88 574-7 3.5 1.75-3.5-1.75-3.5z" fill="none" stroke="#000" stroke-miterlimit="10"/><path d="m41 235v3h-1v-3zm0 6v3h-1v-3zm0 6v3h-1v-3zm0 6v3h-1v-3zm0 6v3h-1v-3zm0 6v3h-1v-3zm0 6v3h-1v-3zm0 6v3h-1v-3zm0 6v3h-1v-3zm0 6v3h-1v-3zm0 6v3h-1v-3zm0 6v3h-1v-3zm0 6v3h-1v-3zm0 6v3h-1v-3zm0 6v3h-1v-3zm0 6v3h-1v-3zm0 6v3h-1v-3zm0 6v3h-1v-3zm0 6v3h-1v-3zm0 6v3h-1v-3zm0 6v3h-1v-3zm0 6v3h-1v-3zm0 6v3h-1v-3zm0 6v3h-1v-3zm0 6v3h-1v-3zm0 6v3h-1v-3zm0 6v3h-1v-3zm0 6v3h-1v-3zm0 6v3h-1v-3zm0 6v3h-1v-3zm0 6v3h-1v-3zm0 6v3h-1v-3zm0 6v3h-1v-3zm0 6v3h-1v-3zm0 6v3h-1v-3zm0 6v3h-1v-3zm0 6v3h-1v-3zm0 6v3h-1v-3zm0 6v3h-1v-3zm0 6v3h-1v-3zm0 6v3h-1v-3zm0 6v3h-1v-3zm0 6v3h-1v-3zm0 6v3h-1v-3zm0 6v3h-1v-3zm0 6v3h-1v-3zm0 6v3h-1v-3zm0 6v3h-1v-3zm0 6v3h-1v-3zm0 6v3h-1v-3zm0 6v3h-1v-3zm0 6v3h-1v-3zm0 6v3h-1v-3zm0 6v3h-1v-3zm0 6v3h-1v-3zm0 6v3h-1v-3zm0 6v3h-1v-3zm0 6v3h-1v-3zm0 6v3h-1v-3zm0 6v3h-1v-3zm0 6v3h-1v-3zm0 6v3h-1v-3zm0 6v3h-1v-3zm0 6v3h-1v-3zm0 6v3h-1v-3zm0 6v3h-1v-3zm0 6v3h-1v-3zm0 6v3h-1v-3zm0 6v3h-1v-3zm0 6v3h-1v-3zm0.5 4.5h3v1h-3zm6 0h3v1h-3zm6 0h3v1h-3zm6 0h3v1h-3zm6 0h3v1h-3zm6 0h3v1h-3zm6 0h3v1h-3zm6 0h3v1h-3zm6 0h3v1h-3zm6 0h3v1h-3zm6 0h3v1h-3zm6 0h3v1h-3zm6 0h3v1h-3zm6 0h3v1h-3zm6 0h3v1h-3zm6 0h3v1h-3zm6 0h3v1h-3zm6 0h3v1h-3zm6 0h3v1h-3zm6 0h3v1h-3zm6 0h3v1h-3zm6 0h3v1h-3zm6 0h3v1h-3zm6 0h3v1h-3zm6 0h3v1h-3zm6 0h3v1h-3zm6 0h3v1h-3zm6 0h0.13v1h-0.13z"/><path d="m208.88 654-7 3.5 1.75-3.5-1.75-3.5z"/><path d="m208.88 654-7 3.5 1.75-3.5-1.75-3.5z" fill="none" stroke="#000" stroke-miterlimit="10"/><path d="m41 235v3h-1v-3zm0 6v3h-1v-3zm0 6v3h-1v-3zm0 6v3h-1v-3zm0 6v3h-1v-3zm0 6v3h-1v-3zm0 6v3h-1v-3zm0 6v3h-1v-3zm0 6v3h-1v-3zm0 6v3h-1v-3zm0 6v3h-1v-3zm0 6v3h-1v-3zm0 6v3h-1v-3zm0 6v3h-1v-3zm0 6v3h-1v-3zm0 6v3h-1v-3zm0 6v3h-1v-3zm0 6v3h-1v-3zm0 6v3h-1v-3zm0 6v3h-1v-3zm0 6v3h-1v-3zm0 6v3h-1v-3zm0 6v3h-1v-3zm0 6v3h-1v-3zm0 6v3h-1v-3zm0 6v3h-1v-3zm0 6v3h-1v-3zm0 6v3h-1v-3zm0 6v3h-1v-3zm0 6v3h-1v-3zm0 6v3h-1v-3zm0 6v3h-1v-3zm0 6v3h-1v-3zm0 6v3h-1v-3zm0 6v3h-1v-3zm0 6v3h-1v-3zm0 6v3h-1v-3zm0 6v3h-1v-3zm0 6v3h-1v-3zm0 6v3h-1v-3zm0 6v3h-1v-3zm0 6v3h-1v-3zm0 6v3h-1v-3zm0 6v3h-1v-3zm0 6v3h-1v-3zm0 6v3h-1v-3zm0 6v3h-1v-3zm0 6v3h-1v-3zm0 6v3h-1v-3zm0 6v3h-1v-3zm0 6v3h-1v-3zm0 6v3h-1v-3zm0 6v3h-1v-3zm0 6v3h-1v-3zm0 6v3h-1v-3zm0 6v3h-1v-3zm0 6v3h-1v-3zm0 6v3h-1v-3zm0 6v3h-1v-3zm0 6v3h-1v-3zm0 6v3h-1v-3zm0 6v3h-1v-3zm0 6v3h-1v-3zm0 6v3h-1v-3zm0 6v3h-1v-3zm0 6v3h-1v-3zm0 6v3h-1v-3zm0 6v3h-1v-3zm0 6v3h-1v-3zm0 6v3h-1v-3zm0 6v3h-1v-3zm0 6v3h-1v-3zm0 6v3h-1v-3zm0 6v3h-1v-3zm0 6v3h-1v-3zm0 6v3h-1v-3zm0 6v3h-1v-3zm0 6v3h-1v-3zm0 6v3h-1v-3zm0 6v3h-1v-3zm0 6v3h-1v-3zm0 6v3h-1v-3zm0 6v3h-1v-3zm0 6v1h-0.5v-0.5h2v1h-2.5v-1.5zm4.5 0.5h3v1h-3zm6 0h3v1h-3zm6 0h3v1h-3zm6 0h3v1h-3zm6 0h3v1h-3zm6 0h3v1h-3zm6 0h3v1h-3zm6 0h3v1h-3zm6 0h3v1h-3zm6 0h3v1h-3zm6 0h3v1h-3zm6 0h3v1h-3zm6 0h3v1h-3zm6 0h3v1h-3zm6 0h3v1h-3zm6 0h3v1h-3zm6 0h3v1h-3zm6 0h3v1h-3zm6 0h3v1h-3zm6 0h3v1h-3zm6 0h3v1h-3zm6 0h3v1h-3zm6 0h3v1h-3zm6 0h3v1h-3zm6 0h3v1h-3zm6 0h3v1h-3zm6 0h2.13v1h-2.13z"/><path d="m208.88 734-7 3.5 1.75-3.5-1.75-3.5z"/><path d="m208.88 734-7 3.5 1.75-3.5-1.75-3.5z" fill="none" stroke="#000" stroke-miterlimit="10"/></g><g transform="scale(2.9956)"><path d="m1 139c0-32 79-32 79 0v72c0 32-79 32-79 0z" fill="#dae8fc"/><path d="m1 139c0-32 79-32 79 0v72c0 32-79 32-79 0z" fill="none" stroke="#6c8ebf" stroke-miterlimit="10"/><path d="m1 139c0 24 79 24 79 0" fill="none" stroke="#6c8ebf" stroke-miterlimit="10"/><g fill="#000000" font-family="Helvetica" font-size="12px"><text transform="translate(9.8281 177)"><tspan x="0 8.0039062 16.669922 25.335938 33.339844 37.335938 46.001953 54.667969" y="0">SDDS-NCL</tspan></text><text transform="translate(20.156 191)"><tspan x="0 8.0039062 14.003906 20.677734 27.351562 34.025391" y="0">Pseudo</tspan></text><text transform="translate(5.4844 205)"><tspan x="0 8.0039062 14.003906 20.677734 26.677734 33.351562 37.347656 44.021484 50.695312 57.369141 64.042969" y="0">Synchronous</tspan></text><text transform="translate(22.156 219)"><tspan x="0 6.6738281 9.3398438 16.013672 20.009766 26.683594 30.679688" y="0">Library</tspan></text></g></g><g transform="matrix(2.9956 0 0 2.9956 1.4978 1.4978)"><path d="m80 174.5h3v1h-3m6-1h3v1h-3m6-1h3v1h-3m6-1h3v1h-3m6-1h3v1h-3m6-1h3v1h-3m6-1h3v1h-3m6-1h3v1h-3m6-1h3v1h-3m6-1h3v1h-3m6-1h3v1h-3m6-1h3v1h-3m6-1h3v1h-3m6-1h3v1h-3m6-1h3v1h-3m6-1h3v1h-3m6-1h3v1h-3m6-1h3v1h-3m6-1h3v1h-3m6-1h3v1h-3m6-1h3v1h-3"/><path d="m208.88 175-7 3.5 1.75-3.5-1.75-3.5z"/><path d="m208.88 175-7 3.5 1.75-3.5-1.75-3.5z" fill="none" stroke="#000" stroke-miterlimit="10"/><path d="m80 174.5h3v1h-3zm6 0h3v1h-3zm6 0h3v1h-3zm6 0h3v1h-3zm6 0h3v1h-3zm6 0h3v1h-3zm6 0h3v1h-3zm6 0h3v1h-3zm6 0h3v1h-3zm6 0h3v1h-3zm6 0h3v1h-3zm5.5 1.5v3h-1v-3zm0 6v3h-1v-3zm0 6v3h-1v-3zm0 6v3h-1v-3zm0 6v3h-1v-3zm0 6v3h-1v-3zm0 6v3h-1v-3zm0 6v3h-1v-3zm0 6v3h-1v-3zm0 6v3h-1v-3zm0 6v3h-1v-3zm0 6v3h-1v-3zm0 6v3h-1v-3zm0 6v3h-1v-3zm0 6v3h-1v-3zm0 6v3h-1v-3zm0 6v3h-1v-3zm0 6v3h-1v-3zm0 6v3h-1v-3zm0 6v3h-1v-3zm0 6v3h-1v-3zm0 6v3h-1v-3zm0 6v3h-1v-3zm0 6v3h-1v-3zm0 6v3h-1v-3zm0 6v3h-1v-3zm0 6v3h-1v-3zm2.5 2.5h3v1h-3zm6 0h3v1h-3zm6 0h3v1h-3zm6 0h3v1h-3zm6 0h3v1h-3zm6 0h3v1h-3zm6 0h3v1h-3zm6 0h3v1h-3zm6 0h3v1h-3zm6 0h1.63v1h-1.63z"/><path d="m208.88 335-7 3.5 1.75-3.5-1.75-3.5z"/><path d="m208.88 335-7 3.5 1.75-3.5-1.75-3.5z" fill="none" stroke="#000" stroke-miterlimit="10"/></g><g transform="scale(2.9956)"><path d="m328.79 393.57v51.43h-118.79v-60h101.82z" fill="#d5e8d4"/><path d="m328.79 393.57v51.43h-118.79v-60h101.82z" fill="none" stroke="#82b366" stroke-miterlimit="10"/><path d="m311.82 385c1.38 2.01-0.89002 4.07-6.06 5.51l24.24 3.49z" fill="#d5e8d4"/><path d="m311.82 385c1.38 2.01-0.89002 4.07-6.06 5.51l24.24 3.49z" fill="none" stroke="#82b366" stroke-miterlimit="10"/><text transform="translate(229.97 420)" fill="#000000" font-family="Helvetica" font-size="12px"><tspan x="0 9.9960938 16.669922 23.34375 30.017578 36.691406 43.365234 46.699219 55.365234 62.039062 65.373047 68.039062 70.705078 76.705078" y="0">Mapped Netlist</tspan></text></g><g transform="matrix(2.9956 0 0 2.9956 1.4978 1.4978)"><path d="m386 175.5h-3v-1h3m-6 1h-3v-1h3m-6 1h-3v-1h3m-6 1h-3v-1h3m-6 1h-3v-1h3m-6 1h-3v-1h3m-6 1h-3v-1h3m-6 1h-3v-1h3m-6 1h-1.63v-1h1.63"/><path d="m331.12 175 7-3.5-1.75 3.5 1.75 3.5z"/><path d="m331.12 175 7-3.5-1.75 3.5 1.75 3.5z" fill="none" stroke="#000" stroke-miterlimit="10"/></g><g transform="scale(2.9956)"><path d="m386 139c0-32 80-32 80 0v72c0 32-80 32-80 0z" fill="#dae8fc"/><path d="m386 139c0-32 80-32 80 0v72c0 32-80 32-80 0z" fill="none" stroke="#6c8ebf" stroke-miterlimit="10"/><path d="m386 139c0 24 80 24 80 0" fill="none" stroke="#6c8ebf" stroke-miterlimit="10"/><g fill="#000000" font-family="Helvetica" font-size="12px"><text transform="translate(405.66 184)"><tspan x="0 8.0039062 14.003906 20.677734 27.351562 34.025391" y="0">Pseudo</tspan></text><text transform="translate(390.98 198)"><tspan x="0 8.0039062 14.003906 20.677734 26.677734 33.351562 37.347656 44.021484 50.695312 57.369141 64.042969" y="0">Synchronous</tspan></text><text transform="translate(395.66 212)"><tspan x="0 8.6660156 15.339844 22.013672 28.013672 31.347656 35.34375 42.017578 44.683594 51.357422 54.691406" y="0">Constraints</tspan></text></g></g><g transform="matrix(2.9956 0 0 2.9956 1.4978 1.4978)"><path d="m270 365v13.63" fill="none" stroke="#000" stroke-miterlimit="10"/><path d="m270 383.88-3.5-7 3.5 1.75 3.5-1.75z"/><path d="m270 383.88-3.5-7 3.5 1.75 3.5-1.75z" fill="none" stroke="#000" stroke-miterlimit="10"/><path d="m270 524v20-20 13.63" fill="none" stroke="#000" stroke-miterlimit="10"/><path d="m270 542.88-3.5-7 3.5 1.75 3.5-1.75z"/><path d="m270 542.88-3.5-7 3.5 1.75 3.5-1.75z" fill="none" stroke="#000" stroke-miterlimit="10"/></g><g transform="scale(2.9956)"><path d="m210 464h120v60h-120z" fill="#fff2cc"/><path d="m210 464h120v60h-120z" fill="none" stroke="#d6b656" stroke-miterlimit="10"/><text transform="translate(238.64 492)" fill="#000000" font-family="Helvetica" font-size="12px"><tspan x="0 3.3339844 10.007812 16.007812 20.003906 26.677734 36.673828 43.347656 50.021484 53.355469 60.029297" y="0">Incremental</tspan></text><text transform="translate(218.97 506)" fill="#000000" font-family="Helvetica" font-size="12px"><tspan x="0 8.6660156 17.332031 24.005859 32.009766 35.34375 44.677734 51.351562 54.685547 57.351562 67.347656 70.013672 76.013672 82.6875 86.021484 88.6875 95.361328" y="0">NCLP Optimisation</tspan></text></g><g transform="matrix(2.9956 0 0 2.9956 1.4978 1.4978)"><path d="m270 445v12.63" fill="none" stroke="#000" stroke-miterlimit="10"/><path d="m270 462.88-3.5-7 3.5 1.75 3.5-1.75z"/><path d="m270 462.88-3.5-7 3.5 1.75 3.5-1.75z" fill="none" stroke="#000" stroke-miterlimit="10"/><path d="m270 684v20-20 13.63" fill="none" stroke="#000" stroke-miterlimit="10"/><path d="m270 702.88-3.5-7 3.5 1.75 3.5-1.75z"/><path d="m270 702.88-3.5-7 3.5 1.75 3.5-1.75z" fill="none" stroke="#000" stroke-miterlimit="10"/></g><g transform="scale(2.9956)"><path d="m210 624h120v60h-120z" fill="#fff2cc"/><path d="m210 624h120v60h-120z" fill="none" stroke="#d6b656" stroke-miterlimit="10"/><text transform="translate(224.98 652)" fill="#000000" font-family="Helvetica" font-size="12px"><tspan x="0 3.3339844 10.007812 16.007812 20.003906 26.677734 36.673828 43.347656 50.021484 53.355469 60.029297 62.695312 66.029297 74.695312 83.361328" y="0">Incremental NCL</tspan></text><text transform="translate(236.66 666)" fill="#000000" font-family="Helvetica" font-size="12px"><tspan x="0 9.3339844 16.007812 19.341797 22.007812 32.003906 34.669922 40.669922 47.34375 50.677734 53.34375 60.017578" y="0">Optimisation</tspan></text></g><g transform="matrix(2.9956 0 0 2.9956 1.4978 1.4978)"><path d="m270 764v20-20 13.63" fill="none" stroke="#000" stroke-miterlimit="10"/><path d="m270 782.88-3.5-7 3.5 1.75 3.5-1.75z"/><path d="m270 782.88-3.5-7 3.5 1.75 3.5-1.75z" fill="none" stroke="#000" stroke-miterlimit="10"/></g><g transform="scale(2.9956)"><path d="m210 704h120v60h-120z" fill="#fff2cc"/><path d="m210 704h120v60h-120z" fill="none" stroke="#d6b656" stroke-miterlimit="10"/><text transform="translate(237.66 739)" fill="#000000" font-family="Helvetica" font-size="12px"><tspan x="0 7.3300781 9.9960938 15.996094 19.330078 27.333984 31.330078 39.996094 46.669922 50.003906 52.669922 55.335938 61.335938" y="0">Fix X-Netlist</tspan></text></g><g transform="matrix(2.9956 0 0 2.9956 1.4978 1.4978)"><path d="m330 814h34.63" fill="none" stroke="#000" stroke-miterlimit="10"/><path d="m369.88 814-7 3.5 1.75-3.5-1.75-3.5z"/><path d="m369.88 814-7 3.5 1.75-3.5-1.75-3.5z" fill="none" stroke="#000" stroke-miterlimit="10"/><path d="m41 235v3h-1v-3zm0 6v3h-1v-3zm0 6v3h-1v-3zm0 6v3h-1v-3zm0 6v3h-1v-3zm0 6v3h-1v-3zm0 6v3h-1v-3zm0 6v3h-1v-3zm0 6v3h-1v-3zm0 6v3h-1v-3zm0 6v3h-1v-3zm0 6v3h-1v-3zm0 6v3h-1v-3zm0 6v3h-1v-3zm0 6v3h-1v-3zm0 6v3h-1v-3zm0 6v3h-1v-3zm0 6v3h-1v-3zm0 6v3h-1v-3zm0 6v3h-1v-3zm0 6v3h-1v-3zm0 6v3h-1v-3zm0 6v3h-1v-3zm0 6v3h-1v-3zm0 6v3h-1v-3zm0 6v3h-1v-3zm0 6v3h-1v-3zm0 6v3h-1v-3zm0 6v3h-1v-3zm0 6v3h-1v-3zm0 6v3h-1v-3zm0 6v3h-1v-3zm0 6v3h-1v-3zm0 6v3h-1v-3zm0 6v3h-1v-3zm0 6v3h-1v-3zm0 6v3h-1v-3zm0 6v3h-1v-3zm0 6v3h-1v-3zm0 6v3h-1v-3zm0 6v3h-1v-3zm0 6v3h-1v-3zm0 6v3h-1v-3zm0 6v3h-1v-3zm0 6v3h-1v-3zm0 6v3h-1v-3zm0 6v3h-1v-3zm0 6v3h-1v-3zm0 6v3h-1v-3zm0 6v3h-1v-3zm0 6v3h-1v-3zm0 6v3h-1v-3zm0 6v3h-1v-3zm0 6v3h-1v-3zm0 6v3h-1v-3zm0 6v3h-1v-3zm0 6v3h-1v-3zm0 6v3h-1v-3zm0 6v3h-1v-3zm0 6v3h-1v-3zm0 6v3h-1v-3zm0 6v3h-1v-3zm0 6v3h-1v-3zm0 6v3h-1v-3zm0 6v3h-1v-3zm0 6v3h-1v-3zm0 6v3h-1v-3zm0 6v3h-1v-3zm0 6v3h-1v-3zm0 6v3h-1v-3zm0 6v3h-1v-3zm0 6v3h-1v-3zm0 6v3h-1v-3zm0 6v3h-1v-3zm0 6v3h-1v-3zm0 6v3h-1v-3zm0 6v3h-1v-3zm0 6v3h-1v-3zm0 6v3h-1v-3zm0 6v3h-1v-3zm0 6v3h-1v-3zm0 6v3h-1v-3zm0 6v3h-1v-3zm0 6v3h-1v-3zm0 6v3h-1v-3zm0 6v3h-1v-3zm0 6v3h-1v-3zm0 6v3h-1v-3zm0 6v3h-1v-3zm0 6v3h-1v-3zm0 6v3h-1v-3zm0 6v3h-1v-3zm0 6v3h-1v-3zm0 6v3h-1v-3zm0 6v3h-1v-3zm0 6v3h-1v-3zm0 6v3h-1v-3zm2.5 2.5h3v1h-3zm6 0h3v1h-3zm6 0h3v1h-3zm6 0h3v1h-3zm6 0h3v1h-3zm6 0h3v1h-3zm6 0h3v1h-3zm6 0h3v1h-3zm6 0h3v1h-3zm6 0h3v1h-3zm6 0h3v1h-3zm6 0h3v1h-3zm6 0h3v1h-3zm6 0h3v1h-3zm6 0h3v1h-3zm6 0h3v1h-3zm6 0h3v1h-3zm6 0h3v1h-3zm6 0h3v1h-3zm6 0h3v1h-3zm6 0h3v1h-3zm6 0h3v1h-3zm6 0h3v1h-3zm6 0h3v1h-3zm6 0h3v1h-3zm6 0h3v1h-3zm6 0h3v1h-3z"/><path d="m208.88 814-7 3.5 1.75-3.5-1.75-3.5z"/><path d="m208.88 814-7 3.5 1.75-3.5-1.75-3.5z" fill="none" stroke="#000" stroke-miterlimit="10"/></g><g transform="scale(2.9956)"><path d="m210 784h120v60h-120z" fill="#fff2cc"/><path d="m210 784h120v60h-120z" fill="none" stroke="#d6b656" stroke-miterlimit="10"/><text transform="translate(217.64 819)" fill="#000000" font-family="Helvetica" font-size="12px"><tspan x="0 8.6660156 15.339844 21.339844 24.005859 30.005859 36.679688 40.013672 48.679688 57.345703 64.019531 72.023438 75.357422 82.03125 88.705078 92.039062 98.712891" y="0">Resize NCLP gates</tspan></text></g><g transform="matrix(2.9956 0 0 2.9956 1.4978 1.4978)"><path d="m426 759v-203.63" fill="none" stroke="#000" stroke-miterlimit="10"/><path d="m426 550.12 3.5 7-3.5-1.75-3.5 1.75z"/><path d="m426 550.12 3.5 7-3.5-1.75-3.5 1.75z" fill="none" stroke="#000" stroke-miterlimit="10"/><path d="m481 814h20-3 13.63" fill="none" stroke="#000" stroke-miterlimit="10"/><path d="m516.88 814-7 3.5 1.75-3.5-1.75-3.5z"/><path d="m516.88 814-7 3.5 1.75-3.5-1.75-3.5z" fill="none" stroke="#000" stroke-miterlimit="10"/></g><g transform="scale(2.9956)"><path d="m426 759 55 55-55 55-55-55z" fill="#f5f5f5"/><path d="m426 759 55 55-55 55-55-55z" fill="none" stroke="#666" stroke-miterlimit="10"/><text transform="translate(393.2 819)" fill="#333333" font-family="Helvetica" font-size="12px"><tspan x="0 6.890625 9.5566406 19.552734 22.21875 28.892578 35.566406 38.900391 48.896484 55.570312 58.904297" y="0">Timing met?</tspan></text><text transform="translate(484.64 809)" fill="#000000" font-family="Helvetica" font-size="12px" font-weight="bold"><tspan x="0 7.3476562 14.021484" y="0">Yes</tspan></text></g><g transform="matrix(2.9956 0 0 2.9956 1.4978 1.4978)"><path d="m577.5 784v-3h1v3m-1-6v-3h1v3m-1-6v-2.46h1v2.46"/><path d="m578 764.29 3.5 7-3.5-1.75-3.5 1.75z"/><path d="m578 764.29 3.5 7-3.5-1.75-3.5 1.75z" fill="none" stroke="#000" stroke-miterlimit="10"/></g><g transform="scale(2.9956)"><path d="m518 784h120v60h-120z" fill="#fff2cc"/><path d="m518 784h120v60h-120z" fill="none" stroke="#d6b656" stroke-miterlimit="10"/><text transform="translate(527.97 819)" fill="#000000" font-family="Helvetica" font-size="12px"><tspan x="0 8.0039062 14.003906 20.677734 27.351562 31.347656 34.681641 38.015625 41.349609 48.023438 52.019531 55.353516 63.357422 70.03125 76.03125 82.03125 84.697266 90.697266 97.371094" y="0">Export for Physical</tspan></text></g><g transform="matrix(2.9956 0 0 2.9956 1.4978 1.4978)"><path d="m371 494h-34.63" fill="none" stroke="#000" stroke-miterlimit="10"/><path d="m331.12 494 7-3.5-1.75 3.5 1.75 3.5z"/><path d="m331.12 494 7-3.5-1.75 3.5 1.75 3.5z" fill="none" stroke="#000" stroke-miterlimit="10"/></g><g transform="scale(2.9956)"><text transform="translate(344.64 512)" fill="#000000" font-family="Helvetica" font-size="12px" font-weight="bold"><tspan x="0 7.3476562 14.021484" y="0">Yes</tspan></text><path d="m553.38 464h49.24c21.47 0 38.88 13.43 38.88 30s-17.41 30-38.88 30h-49.24c-21.47 0-38.88-13.43-38.88-30s17.41-30 38.88-30z" fill="#f8cecc"/><path d="m553.38 464h49.24c21.47 0 38.88 13.43 38.88 30s-17.41 30-38.88 30h-49.24c-21.47 0-38.88-13.43-38.88-30s17.41-30 38.88-30z" fill="none" stroke="#b85450" stroke-miterlimit="10"/><text transform="translate(539.03 499)" fill="#000000" font-family="Helvetica" font-size="12px"><tspan x="0 6.890625 9.5566406 19.552734 22.21875 28.892578 35.566406 38.900391 45.574219 52.248047 55.582031 58.916016 68.912109 75.585938" y="0">Timing not met</tspan></text><text transform="translate(484.5,486)" fill="#000000" font-family="Helvetica" font-size="12px" font-weight="bold"><tspan x="0 8.6660156" y="0">No</tspan></text></g><g transform="matrix(2.9956 0 0 2.9956 1.4978 1.4978)"><path d="m270 604v13.63" fill="none" stroke="#000" stroke-miterlimit="10"/><path d="m270 622.88-3.5-7 3.5 1.75 3.5-1.75z"/><path d="m270 622.88-3.5-7 3.5 1.75 3.5-1.75z" fill="none" stroke="#000" stroke-miterlimit="10"/></g><g transform="scale(2.9956)"><path d="m210 544h120v60h-120z" fill="#fff2cc"/><path d="m210 544h120v60h-120z" fill="none" stroke="#d6b656" stroke-miterlimit="10"/><text transform="translate(237.66 579)" fill="#000000" font-family="Helvetica" font-size="12px"><tspan x="0 7.3300781 9.9960938 15.996094 19.330078 27.333984 31.330078 39.996094 46.669922 50.003906 52.669922 55.335938 61.335938" y="0">Fix X-Netlist</tspan></text></g><g transform="matrix(2.9956 0 0 2.9956 1.4978 1.4978)"><path d="m634.23 712.88v50.29h-113.62v-58.67h97.39z" fill="#d5e8d4"/><path d="m634.23 712.88v50.29h-113.62v-58.67h97.39z" fill="none" stroke="#82b366" stroke-miterlimit="10"/><path d="m618 704.5c1.32 1.96-0.84998 3.98-5.8 5.39l23.19 3.41z" fill="#d5e8d4"/><path d="m618 704.5c1.32 1.96-0.84998 3.98-5.8 5.39l23.19 3.41z" fill="none" stroke="#82b366" stroke-miterlimit="10"/></g><g transform="scale(2.9956)" fill="#000000" font-family="Helvetica" font-size="12px"><text transform="translate(528.47 732)"><tspan x="0 9.3339844 16.007812 19.341797 26.015625 32.689453 36.023438 39.357422 42.691406 49.365234 53.361328 56.695312 63.369141 70.042969 76.042969 82.042969 84.708984 90.708984 97.382812" y="0">Output for physical</tspan></text><text transform="translate(553.48 746)"><tspan x="0 6 12 18.673828 22.007812 28.681641 35.355469 41.355469 44.021484" y="0">synthesis</tspan></text></g><g transform="matrix(2.9956 0 0 2.9956 1.4978 1.4978)"><path d="m346.5 109v3h-1v-3zm0 6v3h-1v-3zm0 6v3h-1v-3zm-0.5 6.5h-3v-1h3zm-6 0h-3v-1h3zm-6 0h-3v-1h3zm-6 0h-3v-1h3zm-6 0h-3v-1h3zm-6 0h-3v-1h3zm-6 0h-3v-1h3zm-6 0h-3v-1h3zm-3.5 1.5v3h-1v-3zm0 6v3h-1v-3z"/><path d="m300 143.88-3.5-7 3.5 1.75 3.5-1.75z"/><path d="m300 143.88-3.5-7 3.5 1.75 3.5-1.75z" fill="none" stroke="#000" stroke-miterlimit="10"/></g><g transform="scale(2.9956)"><path d="m306 23c0-29.33 80-29.33 80 0v64c0 29.33-80 29.33-80 0z" fill="#dae8fc"/><path d="m306 23c0-29.33 80-29.33 80 0v64c0 29.33-80 29.33-80 0z" fill="none" stroke="#6c8ebf" stroke-miterlimit="10"/><path d="m306 23c0 22 80 22 80 0" fill="none" stroke="#6c8ebf" stroke-miterlimit="10"/><g fill="#000000" font-family="Helvetica" font-size="12px"><text transform="translate(321.33 62)"><tspan x="0 8.6660156 15.339844 22.013672 24.679688 28.675781 37.341797 44.015625 46.681641" y="0">Dual-Rail</tspan></text><text transform="translate(311.97 76)"><tspan x="0 6.6738281 12.673828 19.347656 26.021484 32.695312 38.695312 41.361328 48.035156 54.708984 58.042969 64.716797" y="0">expansion of</tspan></text><text transform="translate(313.31 90)"><tspan x="0 6 12.673828 22.669922 29.34375 36.017578 42.691406 49.365234 56.039062 59.373047" y="0">components</tspan></text></g></g></g></g></svg>
